<svg xmlns="http://www.w3.org/2000/svg" version="1.1" viewBox="622.36 131.35 804.17 1102.17">
<path d="M0 0 C1.13898072 -0.00913666 1.13898072 -0.00913666 2.30097115 -0.01845789 C4.82337204 -0.03499188 7.3452628 -0.03032601 9.8677063 -0.0255127 C11.68515544 -0.03285861 13.50259991 -0.04144635 15.32003784 -0.05117798 C20.24160771 -0.07334742 25.16300992 -0.07632696 30.08462286 -0.07443047 C34.1998003 -0.07431056 38.31494249 -0.08288303 42.4301101 -0.09120798 C52.14208028 -0.11042552 61.85396451 -0.11333184 71.56594849 -0.10656738 C81.57033601 -0.09992726 91.57435478 -0.12279368 101.57866752 -0.15988111 C110.18190787 -0.19061214 118.78502979 -0.20193446 127.3883239 -0.1980443 C132.52058092 -0.19598038 137.65255089 -0.20140107 142.78475571 -0.22593689 C147.61289468 -0.24825778 152.44043546 -0.24628182 157.26857758 -0.22600937 C159.03497663 -0.2226088 160.80141639 -0.22764714 162.56776047 -0.24199295 C172.79744595 -0.31930817 181.97082324 -0.23263054 189.90693474 7.12052155 C196.84884179 14.40375979 199.92127595 24.83939913 203.54397583 34.01940918 C204.07150671 35.34809302 204.59942794 36.67662194 205.12771606 38.00500488 C206.22360126 40.76162949 207.31781935 43.51890638 208.41067505 46.2767334 C210.96367044 52.71668936 213.53429005 59.1495991 216.10647583 65.58190918 C216.59543335 66.80506836 217.08439087 68.02822754 217.58816528 69.28845215 C221.10892624 78.08483429 224.6593136 86.86879142 228.23147583 95.64440918 C228.70141968 96.79965088 229.17136353 97.95489258 229.6555481 99.1451416 C230.08665894 100.20193115 230.51776978 101.2587207 230.96194458 102.34753418 C231.34117065 103.27727051 231.72039673 104.20700684 232.1111145 105.16491699 C232.7094308 106.5948632 233.35076178 108.00798109 234.04397583 109.39440918 C235.23042379 109.39495395 236.41687176 109.39549871 237.63927269 109.39605999 C265.82612061 109.41011514 294.01284736 109.44991576 322.19960924 109.5212648 C325.67165676 109.53003117 329.14370479 109.53858105 332.61575317 109.54699707 C333.3069527 109.54867613 333.99815222 109.5503552 334.71029718 109.55208514 C345.89063989 109.5787286 357.07093133 109.58784831 368.25130253 109.59045061 C379.73009524 109.59351399 391.20871572 109.61587581 402.68744528 109.65493375 C409.13210863 109.67625425 415.57652224 109.68886901 422.02122116 109.68056297 C428.0902683 109.67301717 434.15880964 109.68886828 440.22776413 109.72246933 C442.45210276 109.73069604 444.67649175 109.73046035 446.9008255 109.72100639 C449.94574662 109.70934861 452.98901987 109.72855849 456.03381348 109.75517273 C456.90738507 109.74449947 457.78095666 109.73382621 458.68100011 109.72282952 C467.17206623 109.86063186 474.04909581 113.0801122 479.98147583 119.14440918 C487.2131262 127.31777323 486.47205653 138.06389416 486.42429256 148.26355648 C486.4277281 149.88606322 486.43247626 151.50856761 486.43841353 153.13106713 C486.45092893 157.59418161 486.44477058 162.05710508 486.43557985 166.52022046 C486.42887571 171.37405045 486.43953333 176.22784736 486.4479757 181.08167034 C486.46035832 189.59019364 486.46154815 198.09866181 486.45542526 206.60719109 C486.44634463 219.25960283 486.45435782 231.91196347 486.4657165 244.56437129 C486.48540056 267.16023939 486.48772752 289.75608458 486.4825213 312.35195921 C486.4779673 332.12640247 486.47855934 351.90083665 486.48436165 371.67527962 C486.48511851 374.32594674 486.48587449 376.97661387 486.48662959 379.627281 C486.48777476 383.62139965 486.48892444 387.61551829 486.49008884 391.60963693 C486.50084522 428.75171608 486.5055477 465.89379238 486.49761868 503.03587246 C486.49747037 503.73596625 486.49732206 504.43606003 486.49716926 505.15736878 C486.49551027 512.9641485 486.49376068 520.77092819 486.49197625 528.57770788 C486.49173472 529.634963 486.49173472 529.634963 486.4914883 530.71357681 C486.49018055 536.4337685 486.49018055 536.4337685 486.48952711 539.26482415 C486.47913457 584.35401373 486.48690425 629.44316428 486.51052856 674.53234863 C486.51647194 685.89456647 486.52236349 697.25678432 486.52793789 708.61900234 C486.52828166 709.31861359 486.52862543 710.01822483 486.52897962 710.73903641 C486.53950638 732.29958388 486.54510096 753.86012809 486.54549503 775.42067814 C486.54550782 776.09752788 486.5455206 776.77437762 486.54553377 777.47173797 C486.54576205 792.32971567 486.54475601 807.1876931 486.54262471 822.04567065 C486.541776 828.02368808 486.54103192 834.00170553 486.54030037 839.97972298 C486.54013056 841.28757375 486.53996075 842.59542452 486.5397858 843.94290713 C486.53748052 863.70583238 486.54547066 883.46873652 486.55859184 903.23165703 C486.57348273 925.70039039 486.57437354 948.16907419 486.55652093 970.63780647 C486.5469376 983.21775919 486.54843423 995.79759638 486.56575562 1008.37754146 C486.57621383 1016.77543427 486.57218892 1025.17323872 486.55627558 1033.57112278 C486.54761074 1038.35931703 486.54529956 1043.14728426 486.5605449 1047.93546718 C486.57428485 1052.29185044 486.56960296 1056.64781151 486.55025971 1061.00416995 C486.54652553 1062.56987731 486.54948062 1064.13561869 486.5599728 1065.70129534 C486.6293786 1076.82524366 485.61363407 1086.45125373 477.75881958 1094.92565918 C472.62334496 1099.32415225 466.49907704 1101.51798489 459.80333275 1101.52321035 C458.70832263 1101.52648254 457.61331251 1101.52975473 456.48512027 1101.53312609 C455.2749529 1101.53164246 454.06478554 1101.53015884 452.81794643 1101.52863026 C450.88996952 1101.5321586 450.88996952 1101.5321586 448.92304358 1101.53575823 C445.33217457 1101.54217704 441.74132789 1101.54231835 438.15045423 1101.54148082 C434.25253034 1101.54164995 430.35461454 1101.54755193 426.45669466 1101.55272168 C418.7151443 1101.56206233 410.97359965 1101.56597219 403.23204435 1101.56824065 C393.96343417 1101.57119892 384.69483162 1101.57989412 375.42622543 1101.58865493 C353.02082612 1101.6095158 330.61542548 1101.61997172 308.21001872 1101.62878453 C297.61427834 1101.63298871 287.01853852 1101.63821101 276.42279862 1101.64346906 C240.16502255 1101.6613607 203.90724633 1101.6763575 167.64946651 1101.68378925 C165.37246532 1101.68426401 163.09546413 1101.6847399 160.81846294 1101.68521691 C159.12465008 1101.68557148 159.12465008 1101.68557148 157.39661878 1101.68593321 C151.67531136 1101.68713443 145.95400395 1101.68834987 140.23269653 1101.6895752 C138.52956797 1101.68993542 138.52956797 1101.68993542 136.79203278 1101.69030292 C99.97208732 1101.69819732 63.15217406 1101.72163133 26.33224267 1101.75413114 C-12.57952983 1101.78841476 -51.49128349 1101.80813904 -90.40307134 1101.81143349 C-94.67323427 1101.81185105 -98.94339719 1101.81233061 -103.2135601 1101.81285667 C-104.79075578 1101.81304146 -104.79075578 1101.81304146 -106.399814 1101.81322998 C-123.33460155 1101.81556386 -140.26935176 1101.83123429 -157.204126 1101.85169852 C-174.22101608 1101.871936 -191.23786122 1101.87744367 -208.25476111 1101.86792789 C-218.36851768 1101.86270481 -228.48212485 1101.86862844 -238.59585997 1101.89046256 C-245.35005951 1101.9039438 -252.1041559 1101.90291737 -258.8583564 1101.8900606 C-262.70787704 1101.88314611 -266.55711152 1101.88255504 -270.40660692 1101.89962069 C-274.55432569 1101.91785867 -278.701378 1101.9051299 -282.84910679 1101.88939381 C-284.63977559 1101.90472712 -284.63977559 1101.90472712 -286.46661952 1101.92037019 C-294.95727356 1101.84981107 -301.54439899 1100.13942041 -308.76852417 1095.64440918 C-314.45376133 1089.79673667 -317.07936924 1084.06509578 -317.085976 1075.92265648 C-317.08882487 1074.92608469 -317.08882487 1074.92608469 -317.09173128 1073.90938015 C-317.09691655 1071.66284907 -317.09493572 1069.41638011 -317.09303856 1067.16984463 C-317.09529363 1065.54410086 -317.09798468 1063.91835766 -317.1010744 1062.29261526 C-317.10833303 1057.79259292 -317.10930366 1053.29258722 -317.10929717 1048.79255981 C-317.11036385 1043.90909618 -317.11715103 1039.02564003 -317.12320387 1034.1421805 C-317.13429521 1024.44175397 -317.13993201 1014.74133105 -317.14391275 1005.04089929 C-317.14891566 993.42774805 -317.15964218 981.81460387 -317.17039449 970.20145679 C-317.19665262 941.46172754 -317.21168258 912.72199524 -317.22481936 883.98225747 C-317.22877073 875.35327594 -317.23306532 866.72429461 -317.23748827 858.09531331 C-317.26238197 809.40852709 -317.2844604 760.72174038 -317.29667865 712.03494918 C-317.29757603 708.47037008 -317.29849073 704.90579098 -317.29940639 701.34121189 C-317.299588 700.63410672 -317.29976961 699.92700155 -317.29995673 699.19846895 C-317.30179942 692.03440283 -317.30366528 684.87033671 -317.30555482 677.7062706 C-317.30593287 676.26984528 -317.30630916 674.83341996 -317.3066837 673.39699464 C-317.31871394 627.26356257 -317.3484023 581.13016823 -317.39009881 534.99675393 C-317.4200462 501.85277274 -317.44767578 468.70879928 -317.45737648 435.56480503 C-317.45757704 434.88325697 -317.45777759 434.20170891 -317.45798423 433.49950788 C-317.46233473 418.53811291 -317.46528053 403.57671799 -317.46691074 388.6153225 C-317.4675871 382.59548783 -317.46844262 376.57565319 -317.46934891 370.55581856 C-317.46953952 369.23878988 -317.46973014 367.9217612 -317.46992653 366.56482257 C-317.47344394 345.34535911 -317.49375952 324.1259433 -317.52014554 302.90649736 C-317.54625555 281.58800852 -317.55403227 260.26957488 -317.54304425 238.95107233 C-317.53705589 226.27780472 -317.54503978 213.60472403 -317.57287509 200.93148461 C-317.59008577 192.47118907 -317.58921302 184.01102145 -317.5735074 175.55072328 C-317.56507053 170.7267364 -317.56460177 165.90310702 -317.58611886 161.07915282 C-317.60553881 156.69019235 -317.60192181 152.30187576 -317.57996538 147.91293276 C-317.57610266 146.33544059 -317.5806131 144.75789985 -317.59455239 143.18046453 C-317.67523595 133.41705568 -317.07858582 125.03298744 -310.22992273 117.49443048 C-303.633296 111.10104717 -295.91529698 109.94757175 -287.11044312 109.99568176 C-286.14805646 109.98903494 -285.18566981 109.98238811 -284.19411993 109.97553986 C-280.98508838 109.95696 -277.77643133 109.95951182 -274.56735229 109.96203613 C-272.26077754 109.95301594 -269.95420759 109.94268809 -267.64764404 109.93115234 C-261.39623835 109.90358669 -255.14492363 109.89429835 -248.89346504 109.88829827 C-242.35646081 109.87891356 -235.8195245 109.85271003 -229.28256226 109.82829285 C-218.31402888 109.78909287 -207.3455062 109.7612327 -196.37692261 109.74084473 C-185.08197408 109.71982167 -173.78706915 109.69253503 -162.49215698 109.65686035 C-161.44687422 109.65356211 -161.44687422 109.65356211 -160.38047463 109.65019725 C-156.8843667 109.63912726 -153.38825917 109.62793452 -149.89215183 109.61668074 C-120.913483 109.52355871 -91.93478426 109.45215286 -62.95602417 109.39440918 C-61.51522311 105.90487735 -60.07899512 102.41348038 -58.64352417 98.92175293 C-58.23940308 97.94315308 -57.83528198 96.96455322 -57.41891479 95.95629883 C-54.81856837 89.62323968 -52.43997855 83.26221716 -50.20915222 76.79005432 C-47.16479705 67.97433577 -43.67320885 59.33034645 -40.2416687 50.66003418 C-39.09762008 47.75407246 -37.96410281 44.84425824 -36.83668518 41.93180847 C-36.10810886 40.04999006 -35.37745472 38.16899086 -34.64620972 36.28820801 C-33.71063791 33.88052609 -32.77832137 31.47157578 -31.849823 29.06115723 C-23.58686382 7.87247047 -23.58686382 7.87247047 -15.95602417 3.39440918 C-10.49254705 1.05996999 -5.9715542 -0.04587131 0 0 Z M15.04397583 52.39440918 C4.12692977 80.44086138 4.12692977 80.44086138 -6.70602417 108.51940918 C-7.34022339 110.17023672 -7.9745028 111.82103346 -8.6088562 113.47180176 C-10.12679104 117.42225005 -11.6440498 121.37295743 -13.16098022 125.3237915 C-15.04999315 130.24354919 -16.9401757 135.16285672 -18.83102417 140.08190918 C-19.19921265 141.04040771 -19.56740112 141.99890625 -19.94674683 142.9864502 C-22.34616201 149.22701268 -24.75619991 155.46338353 -27.17169189 161.69773865 C-28.74686269 165.76331252 -30.32091328 169.82931986 -31.89505005 173.89529419 C-32.6839336 175.93181223 -33.47344095 177.96808874 -34.26358032 180.00411987 C-35.37347339 182.86411631 -36.48134596 185.72488803 -37.58883667 188.58581543 C-37.92892761 189.46051483 -38.26901855 190.33521423 -38.61941528 191.23641968 C-40.23002688 194.7244621 -40.23002688 194.7244621 -40.95602417 198.39440918 C42.86397583 198.39440918 126.68397583 198.39440918 213.04397583 198.39440918 C205.51730949 178.70019446 205.51730949 178.70019446 197.66897583 159.14440918 C196.7319873 156.85957699 195.79581836 154.57440857 194.86038208 152.28894043 C194.15872925 150.57505127 194.15872925 150.57505127 193.44290161 148.82653809 C189.85577852 140.02587901 186.35011511 131.19227825 182.82814026 122.36540222 C180.22851227 115.85202978 177.62065737 109.34196048 175.01272583 102.83190918 C173.6604312 99.45515738 172.30822634 96.07836965 170.95605469 92.7015686 C170.06531951 90.47756059 169.17431357 88.253661 168.28302002 86.02987671 C167.0163108 82.86916711 165.75073949 79.70800391 164.48538208 76.54675293 C164.11179565 75.61536499 163.73820923 74.68397705 163.353302 73.72436523 C160.51828257 66.63713236 157.78489112 59.52078892 155.04397583 52.39440918 C108.84397583 52.39440918 62.64397583 52.39440918 15.04397583 52.39440918 Z M-265.95602417 162.39440918 C-265.62602417 455.10440918 -265.29602417 747.81440918 -264.95602417 1049.39440918 C-34.28602417 1049.39440918 196.38397583 1049.39440918 434.04397583 1049.39440918 C434.04397583 756.68440918 434.04397583 463.97440918 434.04397583 162.39440918 C374.97397583 162.39440918 315.90397583 162.39440918 255.04397583 162.39440918 C255.84517022 166.40038113 256.7784136 169.55513184 258.26663208 173.30456543 C258.94556519 175.02353027 258.94556519 175.02353027 259.63821411 176.77722168 C260.12274048 177.99151855 260.60726685 179.20581543 261.10647583 180.45690918 C261.60407922 181.71327299 262.10130955 182.96978461 262.59817505 184.22644043 C264.8866351 190.00697676 267.19566693 195.77918796 269.51663208 201.54675293 C269.88328979 202.45868408 270.24994751 203.37061523 270.62771606 204.31018066 C271.30531122 205.99185586 271.98566895 207.67242144 272.66921997 209.35168457 C272.97078003 210.09797119 273.27234009 210.84425781 273.58303833 211.61315918 C273.84294556 212.25188965 274.10285278 212.89062012 274.37063599 213.54870605 C277.32406582 221.64440203 276.6596279 229.61928744 273.04397583 237.39440918 C269.0940799 243.61848761 263.2555461 246.78788194 256.24983418 248.94747424 C253.57237563 249.48996137 251.08109911 249.52246612 248.34789848 249.52583694 C247.17916376 249.52967809 246.01042904 249.53351923 244.80627811 249.53747678 C243.52128299 249.5366103 242.23628788 249.53574381 240.91235352 249.53485107 C239.53421925 249.53743495 238.15608574 249.54044817 236.77795327 249.54385448 C232.98676581 249.55192528 229.19559729 249.55371409 225.40440226 249.55445194 C221.31698505 249.55630239 217.22957767 249.56384975 213.14216614 249.57058716 C204.20193539 249.5841722 195.26170913 249.59019564 186.32146978 249.59459782 C180.73860549 249.5973603 175.15574292 249.6015977 169.57287979 249.60610199 C154.11453548 249.61829553 138.65619256 249.62859425 123.19784355 249.63197708 C122.20834989 249.63219665 121.21885622 249.63241621 120.1993779 249.63264243 C118.71158703 249.63296985 118.71158703 249.63296985 117.19373977 249.63330388 C115.18385752 249.63374735 113.17397527 249.63419391 111.16409302 249.63464355 C110.16712218 249.63486498 109.17015134 249.63508641 108.14296927 249.63531455 C91.993342 249.63926142 75.8437599 249.65671166 59.69415008 249.68000308 C43.11217139 249.70372491 26.53021535 249.71617933 9.94821942 249.717345 C0.63867111 249.71826136 -8.67081839 249.72400379 -17.98035049 249.74216461 C-25.90890303 249.75757691 -33.83737858 249.76267944 -41.76594324 249.75442651 C-45.8097 249.75052383 -49.85330179 249.75143083 -53.89703941 249.76548386 C-57.60327382 249.77824589 -61.30923717 249.77700523 -65.01547132 249.76489314 C-66.98228042 249.76201908 -68.9490943 249.77385454 -70.91586602 249.7863152 C-80.3959513 249.73356843 -88.69869878 248.97136031 -95.95602417 242.39440918 C-96.61602417 242.39440918 -97.27602417 242.39440918 -97.95602417 242.39440918 C-98.64376822 241.07182446 -99.3031379 239.73454415 -99.95602417 238.39440918 C-100.47164917 237.36315918 -100.98727417 236.33190918 -101.51852417 235.26940918 C-108.19229605 219.032191 -97.12886953 200.78978752 -91.20602417 185.70690918 C-90.01799349 182.67721458 -88.8313562 179.64700729 -87.64883423 176.61515808 C-86.91766365 174.74082033 -86.1832747 172.86773418 -85.44534302 170.99604797 C-85.117901 170.15724594 -84.79045898 169.31844391 -84.45309448 168.45422363 C-84.01818695 167.34721855 -84.01818695 167.34721855 -83.57449341 166.21784973 C-82.84895614 164.39965106 -82.84895614 164.39965106 -82.95602417 162.39440918 C-143.34602417 162.39440918 -203.73602417 162.39440918 -265.95602417 162.39440918 Z " fill="#3B7D4A" transform="translate(939.9560241699219,131.6055908203125)"/>
<path d="M0 0 C1.72345021 -0.01169993 1.72345021 -0.01169993 3.48171759 -0.02363622 C7.31093774 -0.04349363 11.1391572 -0.02781476 14.96838379 -0.01205444 C17.72209206 -0.0160841 20.47575856 -0.02755786 23.22944641 -0.03860474 C29.91982879 -0.06078169 36.60992995 -0.05606088 43.30032313 -0.04154153 C48.74004898 -0.03022734 54.17969629 -0.02872778 59.61943054 -0.03416061 C60.39506492 -0.03492678 61.1706993 -0.03569294 61.96983775 -0.03648233 C63.54576212 -0.03808103 65.12168647 -0.0397021 66.6976108 -0.04134528 C81.4583337 -0.05558654 96.21890107 -0.03923562 110.97959846 -0.01234345 C123.63169981 0.00999389 136.28357174 0.0061133 148.93566895 -0.01693726 C163.64530349 -0.04372403 178.35480189 -0.05421339 193.06445742 -0.03887594 C194.63442769 -0.03728327 196.20439798 -0.03571142 197.77436829 -0.03416061 C198.54672627 -0.03338924 199.31908426 -0.03261786 200.11484703 -0.03182311 C205.54499712 -0.02751472 210.97506049 -0.03477401 216.40519714 -0.04655838 C223.02715104 -0.06061397 229.64880877 -0.05671958 236.27072895 -0.03015466 C239.64641165 -0.01705672 243.02119518 -0.01450655 246.39693642 -0.02840042 C250.06304633 -0.04209657 253.72777644 -0.02488741 257.39379883 0 C258.45120569 -0.01115361 259.50861255 -0.02230722 260.59806204 -0.03379881 C269.69648901 0.08572029 276.73198635 2.81898528 283.13439941 9.38491821 C287.89892745 15.35181535 290.01474973 22.00164859 289.19689941 29.63491821 C287.13298288 38.14483496 283.48913925 43.94434422 276.58752441 49.33804321 C269.74909979 53.04777683 262.43522708 52.92313813 254.86209106 52.89561462 C253.73933442 52.89944017 252.61657779 52.90326572 251.45979822 52.90720719 C247.70756651 52.91750415 243.95548877 52.91355126 240.20324707 52.90957642 C237.50896195 52.91392471 234.81468801 52.91904401 232.1204071 52.92506409 C225.56752699 52.93779326 219.01468789 52.939607 212.46179749 52.93726382 C207.13359863 52.9354785 201.80541219 52.93723491 196.47721481 52.94148827 C195.71796162 52.94208345 194.95870843 52.94267864 194.17644756 52.94329187 C192.63386215 52.94450366 191.09127673 52.9457178 189.54869132 52.94693425 C175.09228799 52.95780293 160.635908 52.95565048 146.17950337 52.9495494 C132.96592484 52.94438093 119.75242005 52.95563502 106.5388561 52.97464762 C92.95805854 52.99403822 79.37729584 53.00227987 65.79648435 52.99852437 C58.17715043 52.99661417 50.55787927 52.99908222 42.93855667 53.01323891 C36.45204281 53.02516927 29.96563032 53.02653909 23.47911502 53.01444874 C20.17250932 53.00857158 16.86612656 53.00906463 13.55952644 53.01945114 C9.96807167 53.02991763 6.37711218 53.02181798 2.78567505 53.00914001 C1.75024964 53.0165143 0.71482423 53.02388858 -0.35197771 53.03148633 C-10.3622412 52.95733832 -18.55593589 51.07576735 -25.88513184 44.00601196 C-30.53446719 38.25825929 -32.53418336 31.10346576 -32.11560059 23.75210571 C-30.99359671 16.15052945 -27.46362676 10.76164344 -21.80310059 5.63491821 C-14.70719655 0.88557369 -8.39214836 -0.08852102 0 0 Z " fill="#3B7C4A" transform="translate(1016.8031005859375,996.3650817871094)"/>
<path d="M0 0 C1.13671615 -0.00623996 2.27343229 -0.01247993 3.44459438 -0.01890898 C7.23223903 -0.0347923 11.01923598 -0.02225227 14.80688477 -0.00964355 C17.53102944 -0.0128674 20.2551471 -0.02204646 22.97927856 -0.03088379 C29.59743873 -0.04862415 36.21541692 -0.04484914 42.83358407 -0.03323323 C48.21466321 -0.02418145 53.59569154 -0.02298243 58.97677612 -0.02732849 C59.74408442 -0.02794142 60.51139272 -0.02855436 61.30195278 -0.02918586 C62.86096614 -0.03046483 64.41997949 -0.03176168 65.97899282 -0.03307623 C80.58088905 -0.04446889 95.18268465 -0.03138899 109.78456438 -0.00987476 C122.30019289 0.00799504 134.81567299 0.00489057 147.33129883 -0.0135498 C161.88270668 -0.03497979 176.43402645 -0.04337037 190.98544788 -0.03110075 C192.53856721 -0.02982662 194.09168655 -0.02856914 195.64480591 -0.02732849 C196.79090439 -0.02640284 196.79090439 -0.02640284 197.96015638 -0.02545848 C203.33168469 -0.02201196 208.7031569 -0.02781885 214.07467651 -0.0372467 C220.62522587 -0.04849176 227.17558363 -0.04537423 233.72611117 -0.02412373 C237.06524016 -0.01364654 240.40378743 -0.01160458 243.74295425 -0.02272034 C247.36947987 -0.03367825 250.99511301 -0.01990737 254.62158203 0 C255.66731605 -0.00892289 256.71305006 -0.01784577 257.79047298 -0.02703905 C266.95462026 0.07029162 275.02634404 2.4513743 281.84204102 8.80090332 C287.23886716 15.07327839 288.85196697 22.39029518 288.31079102 30.50793457 C286.78359496 38.28402456 282.88054696 44.20702526 276.43969727 48.85949707 C271.75923916 51.65770643 267.8649357 52.63071766 262.48928642 52.64215565 C261.02878957 52.64884241 261.02878957 52.64884241 259.53878772 52.65566427 C258.47168571 52.6554799 257.4045837 52.65529554 256.30514526 52.65510559 C255.16947211 52.65878228 254.03379896 52.66245897 252.86371148 52.66624707 C249.04382069 52.67729344 245.22395711 52.68112938 241.40405273 52.68493652 C238.67095202 52.69066838 235.93785537 52.69783437 233.20475769 52.70484924 C224.99273893 52.72460121 216.78071895 52.73467834 208.56868237 52.74357703 C204.69974989 52.74796208 200.83081877 52.75332834 196.96188736 52.7585659 C184.0976407 52.77557705 171.23339489 52.79007065 158.36913872 52.79731464 C155.03165562 52.79922448 151.69417253 52.80114482 148.35668945 52.80310059 C147.52719304 52.80358433 146.69769663 52.80406807 145.84306397 52.80456647 C132.40935601 52.81286466 118.97573716 52.83819851 105.54206811 52.87068126 C91.74443999 52.90377158 77.94685712 52.92176519 64.14918911 52.92495888 C56.40456753 52.92712218 48.66007588 52.93584424 40.91549301 52.96142006 C34.31907884 52.98315407 27.72282617 52.99116427 21.12638025 52.98145328 C17.76296989 52.9769162 14.40016203 52.98095253 11.0367527 52.99821472 C7.383668 53.01591261 3.73142406 53.00883653 0.07833862 52.99568176 C-0.97537906 53.00665101 -2.02909674 53.01762025 -3.11474526 53.0289219 C-11.7760302 52.95379734 -19.16443182 51.14366546 -25.62670898 45.13293457 C-31.12679094 39.07637374 -33.07519261 32.79787413 -32.89233398 24.67590332 C-32.19448572 17.22771514 -29.07878676 12.18079091 -24.31030273 6.55090332 C-16.96901045 0.82885285 -9.03946792 -0.07713065 0 0 Z " fill="#3A7B4A" transform="translate(1017.689208984375,761.4920654296875)"/>
<path d="M0 0 C0.98411476 -0.00706559 1.96822952 -0.01413118 2.98216593 -0.02141088 C4.06094079 -0.0189958 5.13971565 -0.01658071 6.25118065 -0.01409245 C7.39910446 -0.01932912 8.54702826 -0.0245658 9.72973764 -0.02996117 C12.91667687 -0.04238075 16.10347958 -0.04580436 19.29043841 -0.04536426 C22.72755817 -0.04701205 26.1646377 -0.06007804 29.60173607 -0.07155704 C37.11845926 -0.09441136 44.63515422 -0.10232845 52.15190744 -0.10738349 C56.84697356 -0.11064069 61.54203149 -0.1171634 66.23709297 -0.12438488 C79.24030926 -0.14395313 92.24351792 -0.16035543 105.24674988 -0.16326141 C106.07896015 -0.16344898 106.91117041 -0.16363655 107.76859917 -0.16382981 C109.45565756 -0.16419606 111.14271595 -0.16455975 112.82977434 -0.16492092 C114.08594019 -0.16519514 114.08594019 -0.16519514 115.36748314 -0.16547489 C116.20595139 -0.16565544 117.04441965 -0.16583599 117.90829603 -0.16602201 C131.48752943 -0.1695619 145.06660407 -0.19657166 158.64578243 -0.23397278 C172.5925789 -0.27207839 186.53929666 -0.29141907 200.48614633 -0.29172093 C208.31462808 -0.29230507 216.14292057 -0.30076891 223.97135353 -0.32971859 C230.63916526 -0.35426295 237.30671872 -0.36149507 243.97456343 -0.34647106 C247.37441646 -0.33931387 250.77375986 -0.34010679 254.17355537 -0.36288166 C257.86621509 -0.38331699 261.55756087 -0.37280266 265.25020409 -0.35466862 C266.31559461 -0.36786858 267.38098514 -0.38106855 268.47866023 -0.39466852 C276.57872155 -0.30401821 283.14721811 1.70781274 289.27834666 7.17392069 C294.54923951 12.5782782 296.71205431 18.34389837 297.5066433 25.76006222 C296.56952108 34.5065362 293.32185083 41.84687049 286.4441433 47.51006222 C279.57395243 52.98267678 270.08657623 52.55016207 261.74577904 52.5140295 C260.62962951 52.51714948 259.51347999 52.52026947 258.36350775 52.52348399 C254.63968081 52.53143363 250.9160182 52.52515209 247.19219017 52.51885128 C244.51583952 52.52156249 241.83950002 52.52505207 239.16315269 52.5294714 C232.65819915 52.53834589 226.15329186 52.53645207 219.64833653 52.53064612 C214.35972282 52.52612196 209.07112204 52.52551998 203.78250694 52.52769375 C203.02865124 52.52800021 202.27479554 52.52830668 201.49809572 52.52862243 C199.96646011 52.52926191 198.43482449 52.52991034 196.90318888 52.53056762 C182.55458667 52.53626521 168.20601005 52.52972197 153.85741204 52.51896688 C141.55639428 52.51003189 129.25541428 52.51158409 116.9543972 52.52080441 C102.65572631 52.53151712 88.35707783 52.53571594 74.05840349 52.52957988 C72.53252888 52.52894281 71.00665427 52.52831406 69.48077965 52.52769375 C68.73009884 52.5273852 67.97941804 52.52707665 67.20598933 52.52675875 C61.92619186 52.52503481 56.64640865 52.52794041 51.36661339 52.53265285 C44.92878546 52.53827281 38.49100628 52.53672183 32.05318391 52.52609137 C28.77104266 52.52084963 25.48899898 52.5198362 22.20685577 52.52538967 C18.643659 52.53086243 15.08068987 52.52398969 11.51750755 52.5140295 C10.48763332 52.51849095 9.45775908 52.52295239 8.39667654 52.52754903 C-1.63431289 52.47324133 -9.42838107 51.34265911 -16.8683567 44.26006222 C-22.31681765 38.23080087 -24.35768982 31.61875889 -24.1105442 23.51787472 C-23.28342866 15.80702334 -19.38090772 10.5292335 -13.8683567 5.26006222 C-11.1808567 3.38506222 -11.1808567 3.38506222 -8.8683567 2.26006222 C-8.26107125 1.91222288 -7.65378579 1.56438353 -7.02809775 1.20600361 C-4.51676445 0.10606891 -2.7359495 0.00628171 0 0 Z " fill="#3B7C4B" transform="translate(1008.8683567047119,530.7399377822876)"/>
<path d="M0 0 C4.88485162 5.0888872 7.11572281 11.01744002 7.37109375 18.05078125 C6.43921876 33.21704668 -5.84038416 42.75183755 -15.97928238 52.80054092 C-17.46305456 54.27125142 -18.94341818 55.74532427 -20.42306519 57.22018433 C-23.56174151 60.34758138 -26.7043832 63.47097393 -29.84765625 66.59375 C-33.50386812 70.22617845 -37.15833534 73.86032923 -40.80858994 77.49874496 C-42.25265024 78.9364222 -43.69973255 80.37100615 -45.14700317 81.80545044 C-49.62812965 86.26997096 -53.98988261 90.76301288 -58.0697937 95.59933472 C-60.18767518 97.99469422 -62.45061054 100.21947731 -64.72265625 102.46875 C-66.30420351 104.07318409 -67.8838878 105.67945626 -69.46191406 107.28735352 C-73.98157021 111.88702766 -78.51221211 116.47560022 -83.05112076 121.05627537 C-85.78675336 123.81800634 -88.5175046 126.58423123 -91.23779297 129.36108398 C-93.88439137 132.06232447 -96.54330348 134.75087859 -99.21089935 137.43137932 C-100.21832575 138.44797057 -101.22137817 139.46891765 -102.21970367 140.49444771 C-108.81909353 147.2665429 -114.58460841 152.51143979 -124.12890625 154 C-134.51942445 153.89504527 -140.3851975 152.04496261 -147.78515625 144.65625 C-148.91630859 143.44001953 -148.91630859 143.44001953 -150.0703125 142.19921875 C-152.13229025 140.07650528 -154.17850857 138.17994905 -156.41967773 136.26293945 C-160.53245041 132.68382232 -164.39401253 128.91003999 -168.22265625 125.03125 C-168.90263672 124.34748291 -169.58261719 123.66371582 -170.28320312 122.95922852 C-173.15490768 120.07137227 -176.02054063 117.17751925 -178.88671875 114.28417969 C-180.99658412 112.15609275 -183.1095527 110.03112083 -185.22265625 107.90625 C-185.85623047 107.26437744 -186.48980469 106.62250488 -187.14257812 105.96118164 C-190.94722979 102.1360695 -194.87612088 98.5215384 -198.95959473 94.99581909 C-202.25897172 92.13807615 -205.36364072 89.09258124 -208.47265625 86.03125 C-209.11847656 85.41443359 -209.76429688 84.79761719 -210.4296875 84.16210938 C-216.43474072 78.23720574 -220.80772061 71.5028713 -220.97265625 62.84375 C-220.86116277 55.18414822 -218.92391427 48.66655487 -213.5625 43.04296875 C-206.67228598 37.14752024 -199.97376993 35.70756754 -191.00390625 36.0390625 C-186.57298626 36.61930202 -183.36489085 37.93382793 -179.72265625 40.46875 C-178.89765625 41.005 -178.07265625 41.54125 -177.22265625 42.09375 C-176.72765625 42.5475 -176.23265625 43.00125 -175.72265625 43.46875 C-175.72265625 44.12875 -175.72265625 44.78875 -175.72265625 45.46875 C-175.12430969 45.74145218 -174.52596313 46.01415436 -173.90948486 46.29512024 C-171.77837629 47.4388461 -170.41942886 48.53471894 -168.73339844 50.24682617 C-168.17892029 50.80468307 -167.62444214 51.36253998 -167.05316162 51.93730164 C-166.4645636 52.53935928 -165.87596558 53.14141693 -165.26953125 53.76171875 C-164.65047913 54.38597244 -164.031427 55.01022614 -163.39361572 55.65339661 C-161.41514478 57.6496497 -159.44346882 59.652438 -157.47265625 61.65625 C-154.887515 64.27812108 -152.29885402 66.89645282 -149.70703125 69.51171875 C-149.09081909 70.1349704 -148.47460693 70.75822205 -147.83972168 71.40036011 C-144.03607827 75.22390136 -140.15177237 78.86828684 -135.95410156 82.26293945 C-135.54772461 82.66085693 -135.14134766 83.05877441 -134.72265625 83.46875 C-134.72265625 84.12875 -134.72265625 84.78875 -134.72265625 85.46875 C-134.14515625 85.7575 -133.56765625 86.04625 -132.97265625 86.34375 C-131.50589489 87.07713068 -130.04697038 87.82646605 -128.59765625 88.59375 C-126.76544823 89.60971182 -126.76544823 89.60971182 -124.72265625 89.46875 C-124.49578125 88.911875 -124.26890625 88.355 -124.03515625 87.78125 C-122.35253315 84.81662834 -120.1615914 82.85126937 -117.72265625 80.46875 C-116.88832062 79.63663498 -116.05398499 78.80451996 -115.19436646 77.94718933 C-114.30280853 77.05864761 -113.41125061 76.1701059 -112.49267578 75.25463867 C-107.43787196 70.21618266 -102.38561817 65.1751778 -97.33481026 60.13271618 C-94.28882333 57.09194539 -91.24190778 54.05211727 -88.19287109 51.0144043 C-85.22820896 48.06067604 -82.26605833 45.10444977 -79.3055687 42.14653969 C-78.18464682 41.02745009 -77.0628527 39.90923338 -75.94012833 38.79195213 C-70.5204376 33.39750594 -65.17020794 27.99517635 -60.19641113 22.17948914 C-56.63296132 18.04302579 -52.75308361 14.19519712 -48.91723633 10.31323242 C-47.91245851 9.29185209 -46.91308225 8.26512977 -45.91918945 7.2331543 C-32.41106585 -6.78621966 -16.49517829 -14.6623807 0 0 Z " fill="#3B7D4A" transform="translate(965.72265625,701.53125)"/>
<path d="M0 0 C5.74407239 6.70141779 8.68216006 12.7647962 8.125 21.625 C6.56462573 33.10865335 -1.28620148 40.93688932 -9.95033264 48.02796936 C-11.74719381 49.62250978 -13.23605237 51.27971111 -14.77905273 53.11889648 C-19.0210168 58.02498635 -23.59373878 62.58249419 -28.19612312 67.14628792 C-29.75922524 68.69642185 -31.31900252 70.24983711 -32.8780365 71.80406189 C-36.18669335 75.10139199 -39.4992901 78.39474573 -42.8125 81.6875 C-46.66039688 85.51166769 -50.50659063 89.33751751 -54.34856987 93.16763115 C-55.87411867 94.68677009 -57.40268072 96.20282973 -58.93141174 97.71876526 C-63.76217371 102.52479003 -68.35640494 107.41646047 -72.75 112.625 C-73.719375 113.429375 -74.68875 114.23375 -75.6875 115.0625 C-78.03753634 117.02885694 -79.75518824 118.71450981 -81.69140625 121.01953125 C-86.28171895 126.3241205 -91.19895659 131.29598678 -96.14746094 136.26269531 C-97.75402123 137.87904573 -99.34958432 139.50577635 -100.9453125 141.1328125 C-101.98371479 142.17773983 -103.02275562 143.22203309 -104.0625 144.265625 C-104.98675781 145.19922852 -105.91101563 146.13283203 -106.86328125 147.09472656 C-113.76006004 153.13990716 -119.91749852 154.97973181 -128.94921875 154.82421875 C-141.68138944 153.91858318 -149.70906557 142.74653094 -158.12109375 134.21484375 C-161.08271434 131.29722941 -164.17276973 128.5991226 -167.38671875 125.96484375 C-167.83660156 125.52269531 -168.28648437 125.08054687 -168.75 124.625 C-168.75 123.965 -168.75 123.305 -168.75 122.625 C-169.34671005 122.35393433 -169.9434201 122.08286865 -170.55821228 121.80358887 C-172.7212755 120.64044601 -174.10474466 119.50714026 -175.81860352 117.76757812 C-176.38922012 117.19358276 -176.95983673 116.6195874 -177.54774475 116.02819824 C-178.15202805 115.41045532 -178.75631134 114.7927124 -179.37890625 114.15625 C-180.32527199 113.20208191 -180.32527199 113.20208191 -181.29075623 112.2286377 C-183.30281848 110.19878859 -185.3080622 108.16237626 -187.3125 106.125 C-189.32136121 104.08850162 -191.33166774 102.053485 -193.34495544 100.0213623 C-194.59648907 98.75759395 -195.84533972 97.49116167 -197.09120178 96.22180176 C-197.65866623 95.6478064 -198.22613068 95.07381104 -198.81079102 94.48242188 C-199.30724625 93.97771362 -199.80370148 93.47300537 -200.31520081 92.95300293 C-201.91989681 91.3975567 -201.91989681 91.3975567 -204.75 89.625 C-204.75 88.965 -204.75 88.305 -204.75 87.625 C-205.32621094 87.37878906 -205.90242187 87.13257813 -206.49609375 86.87890625 C-212.04486955 83.79197898 -216.5481501 78.10826386 -218.75 72.1875 C-220.77422377 64.5801231 -220.58243991 57.80082513 -217.0078125 50.7265625 C-213.30177465 44.53448683 -208.9388448 39.47634407 -201.75 37.625 C-191.23810981 36.35518133 -184.32739411 37.08142099 -175.75 43.625 C-171.52730324 47.43526047 -167.56937156 51.46775469 -163.625 55.5625 C-161.56426263 57.6800698 -159.4978627 59.79203998 -157.4296875 61.90234375 C-156.93341858 62.41034012 -156.43714966 62.91833649 -155.92584229 63.44172668 C-152.63348073 66.79103462 -149.22366091 69.91828302 -145.64892578 72.9597168 C-142.01168298 76.14943564 -138.64875821 79.62283082 -135.25 83.0625 C-134.52296875 83.79404297 -133.7959375 84.52558594 -133.046875 85.27929688 C-131.27890501 87.05889824 -129.51333622 88.84080918 -127.75 90.625 C-124.31904454 89.14505112 -122.09037395 87.21340187 -119.4597168 84.57763672 C-118.62172043 83.74271698 -117.78372406 82.90779724 -116.92033386 82.0475769 C-116.02236588 81.1424234 -115.12439789 80.2372699 -114.19921875 79.3046875 C-113.26705032 78.37206085 -112.3348819 77.4394342 -111.37446594 76.47854614 C-109.40025544 74.50277265 -107.42944339 72.52369156 -105.46118164 70.54199219 C-102.95826895 68.02219525 -100.44893088 65.50892438 -97.93718243 62.99793816 C-95.99015812 61.05063948 -94.04576991 59.100726 -92.10221291 57.14996719 C-90.73461794 55.77770743 -89.36558072 54.40688548 -87.99650574 53.03610229 C-83.67986057 48.68696027 -79.52007367 44.27617567 -75.52445984 39.63174438 C-72.03585091 35.68646131 -68.30370809 31.97407007 -64.59765625 28.234375 C-63.73869247 27.36733948 -62.8797287 26.50030396 -61.99473572 25.60699463 C-60.18847708 23.78698658 -58.38071873 21.96846578 -56.5715332 20.15136719 C-54.72948127 18.29774232 -52.89191861 16.43964556 -51.05883789 14.57714844 C-48.39404335 11.86967713 -45.71623751 9.17570803 -43.03515625 6.484375 C-41.81760399 5.24056061 -41.81760399 5.24056061 -40.57545471 3.97161865 C-28.68436357 -7.87473643 -13.58297809 -11.73075381 0 0 Z " fill="#3B7D4A" transform="translate(964.75,935.375)"/>
<path d="M0 0 C5.38119582 5.75662809 8.41613799 12.46471991 8.8125 20.3671875 C8.37052615 29.23428795 4.85967812 34.78109226 -1.3125 40.875 C-2.67189271 42.23639182 -4.03128309 43.59778597 -5.390625 44.95922852 C-6.74151085 46.30431558 -8.10480958 47.63690229 -9.46875 48.96875 C-11.53400788 51.02824209 -13.44215964 53.1731134 -15.33178711 55.39428711 C-19.47659683 60.14848652 -23.91019712 64.58713697 -28.38823128 69.02589607 C-29.88413023 70.50881371 -31.37669181 71.99502322 -32.86851501 73.48204041 C-36.03450964 76.63671465 -39.2044464 79.78740858 -42.375 82.9375 C-46.05768952 86.59645096 -49.73866898 90.25708997 -53.41543388 93.92199516 C-54.8745034 95.3746599 -56.33658684 96.82424138 -57.79884338 98.2736969 C-62.52826825 102.98572315 -67.03161307 107.7531341 -71.3125 112.875 C-72.50680377 113.97654231 -73.72812132 115.05151951 -75 116.0625 C-77.52708305 118.13871581 -79.37783213 120.22755976 -81.3125 122.875 C-81.9725 122.875 -82.6325 122.875 -83.3125 122.875 C-83.580625 123.514375 -83.84875 124.15375 -84.125 124.8125 C-85.3125 126.875 -85.3125 126.875 -88.3125 127.875 C-89.52132096 129.87516466 -89.52132096 129.87516466 -90.3125 131.875 C-90.9725 131.875 -91.6325 131.875 -92.3125 131.875 C-92.5811084 132.46740479 -92.8497168 133.05980957 -93.12646484 133.67016602 C-95.08135583 137.30429951 -98.03135729 139.92158865 -100.9375 142.8125 C-101.82501953 143.72418945 -101.82501953 143.72418945 -102.73046875 144.65429688 C-109.22520798 151.15604986 -115.57104868 155.94279804 -125 156.125 C-135.93943276 155.91678239 -141.7752449 151.42523545 -149.3125 143.875 C-150.02857422 143.16053711 -150.74464844 142.44607422 -151.48242188 141.70996094 C-154.78409691 138.41230254 -158.08533504 135.11469932 -161.36083984 131.79101562 C-162.14152832 131.00146484 -162.9222168 130.21191406 -163.7265625 129.3984375 C-164.4170166 128.69638184 -165.1074707 127.99432617 -165.81884766 127.27099609 C-167.87568528 125.29470821 -169.96652894 123.42473345 -172.1237793 121.56152344 C-176.22995 117.99401875 -180.0883438 114.2275531 -183.91796875 110.3671875 C-184.60506424 109.67867706 -185.29215973 108.99016663 -186.00007629 108.28079224 C-188.16910616 106.10622673 -190.33461678 103.92819614 -192.5 101.75 C-193.96265629 100.28231851 -195.42554504 98.81486866 -196.88867188 97.34765625 C-200.15691359 94.06952621 -203.42274811 90.78901767 -206.68685913 87.5067749 C-208.16329372 86.02476929 -209.64449306 84.54751434 -211.1262207 83.07080078 C-216.92364641 77.24812666 -219.30277224 72.27164681 -219.6875 64 C-219.50065272 56.30422771 -216.18708811 49.96799369 -211 44.37890625 C-205.31171127 39.30948227 -198.81257024 37.79335071 -191.3125 37.875 C-180.32428164 38.73146146 -173.49140069 46.40139438 -166.1875 53.9375 C-160.85684947 59.45832335 -160.85684947 59.45832335 -155.1328125 64.55859375 C-152.33381085 66.85749677 -149.85743865 69.29955898 -147.3125 71.875 C-146.51932373 72.66817627 -145.72614746 73.46135254 -144.90893555 74.27856445 C-139.04345703 80.14404297 -133.17797852 86.00952148 -127.3125 91.875 C-124.32222479 90.53152712 -122.23495125 89.04625875 -119.92431641 86.72973633 C-119.28329987 86.09179642 -118.64228333 85.45385651 -117.98184204 84.79658508 C-117.29947479 84.10703232 -116.61710754 83.41747955 -115.9140625 82.70703125 C-115.20148285 81.99399338 -114.4889032 81.28095551 -113.75473022 80.54631042 C-112.24785095 79.03641183 -110.74340113 77.5240853 -109.24121094 76.00952148 C-106.95814132 73.70830539 -104.66728216 71.41508245 -102.375 69.12304688 C-100.90838364 67.65151047 -99.44222315 66.17951955 -97.9765625 64.70703125 C-97.29824371 64.02759964 -96.61992493 63.34816803 -95.92105103 62.64814758 C-92.39988589 59.09227862 -89.02863975 55.48063013 -85.84384155 51.6191864 C-83.77295811 49.26046588 -81.54302482 47.08280753 -79.3125 44.875 C-77.75659701 43.30083915 -76.20220167 41.72518698 -74.64916992 40.14819336 C-70.21528021 35.65032537 -65.77262265 31.16130123 -61.32337475 26.67862606 C-58.64176841 23.97613207 -55.9640431 21.27000978 -53.29467773 18.55541992 C-50.69772314 15.91477904 -48.09091475 13.28423524 -45.47719765 10.66018867 C-44.48938732 9.66504199 -43.50507712 8.66640714 -42.5245266 7.66410637 C-29.46460491 -5.67408037 -16.63396209 -10.6708436 0 0 Z " fill="#3B7D4A" transform="translate(964.3125,468.125)"/>
<path d="M0 0 C1.55644849 -0.00389432 3.11289594 -0.00823049 4.66934204 -0.01298523 C7.92217462 -0.02041938 11.17489861 -0.02017676 14.42773438 -0.01489258 C18.57216167 -0.00910356 22.71614124 -0.02602867 26.86049461 -0.04923725 C30.07264758 -0.06405298 33.28469467 -0.06483567 36.49687576 -0.06172752 C38.02371736 -0.06223687 39.55056549 -0.06740098 41.0773735 -0.07753944 C52.5910205 -0.14461856 62.67536674 0.12519661 71.34765625 8.39453125 C76.97322003 14.73465856 78.34991956 20.93714511 78.25 29.23046875 C77.73370065 36.74549265 74.58613323 42.28086331 69.0390625 47.30078125 C60.55659291 53.54452518 51.16259867 53.03403988 41.1328125 52.96484375 C39.3998582 52.96821902 37.66690623 52.97307754 35.93395996 52.9793396 C32.31625653 52.9866775 28.69917377 52.97610592 25.08154297 52.95263672 C20.46826511 52.92415027 15.85644209 52.94057097 11.24321747 52.97049904 C7.6689783 52.98865611 4.09507821 52.98277576 0.52082825 52.96986008 C-1.17905352 52.96654922 -2.87896711 52.97053051 -4.57881165 52.98225784 C-15.29425914 53.03997941 -23.83791575 52.39348684 -32.3984375 45.2734375 C-32.9140625 44.64308594 -33.4296875 44.01273437 -33.9609375 43.36328125 C-34.4971875 42.73550781 -35.0334375 42.10773438 -35.5859375 41.4609375 C-39.90240597 34.67966743 -39.67933282 27.06122452 -38.9609375 19.30078125 C-36.71376505 11.49033863 -30.88427238 6.23757951 -23.9609375 2.30078125 C-16.15510966 -0.36762856 -8.15179724 -0.0085207 0 0 Z " fill="#3B7D4B" transform="translate(1006.9609375,215.69921875)"/>
<path d="M0 0 C0 3 0 3 -1.3125 4.60546875 C-1.869375 5.12753906 -2.42625 5.64960938 -3 6.1875 C-3.556875 6.71730469 -4.11375 7.24710938 -4.6875 7.79296875 C-5.120625 8.19128906 -5.55375 8.58960938 -6 9 C-6.66 8.67 -7.32 8.34 -8 8 C-5.58443874 4.80800833 -3.31996462 2.25283313 0 0 Z " fill="#5D7A64" transform="translate(979,220)"/>
</svg>