<svg xmlns="http://www.w3.org/2000/svg" version="1.1" viewBox="200.49 161.39 577.93 657.61">
<path d="M0 0 C15.655591 14.84189085 22.57061103 38.88945764 23.26914075 59.89423275 C23.35206876 64.74008291 23.34280431 69.58335383 23.32043457 74.4296875 C23.32505371 76.63519195 23.33141337 78.84069332 23.33934355 81.04618835 C23.35592074 87.05510477 23.34784364 93.06376452 23.33539867 99.07268143 C23.32723918 104.90384617 23.33796316 110.73495812 23.34798814 116.5661155 C23.36896936 129.21611962 23.36725831 141.86604257 23.35567249 154.51605427 C23.34558375 165.58672063 23.34299577 176.65735733 23.34776306 187.72802734 C23.3480686 188.4642731 23.34837414 189.20051886 23.34868894 189.95907509 C23.34993443 192.94823642 23.35120805 195.93739773 23.352528 198.92655903 C23.36474571 226.92911711 23.35369922 254.9316237 23.33214041 282.93417382 C23.31316001 307.77645597 23.31485861 332.61865607 23.33398438 357.4609375 C23.35543385 385.41445676 23.36387901 413.36793056 23.35153532 441.32145691 C23.35025258 444.30496215 23.34900121 447.2884674 23.34776306 450.27197266 C23.34744675 451.00651047 23.34713044 451.74104828 23.34680455 452.49784482 C23.34226742 463.55765777 23.34755188 474.61743772 23.35768127 485.67724609 C23.36914957 498.2611634 23.36619267 510.84498733 23.3445583 523.42889309 C23.33408071 529.84342879 23.32986988 536.25779847 23.34315491 542.67233276 C23.35515281 548.55456222 23.348395 554.43647316 23.3272447 560.31867409 C23.32280983 562.43619284 23.32497388 564.55373901 23.33474785 566.67123985 C23.43419232 590.02346472 19.81585443 613.26410374 4.8125 632 C3.69875 633.5778125 3.69875 633.5778125 2.5625 635.1875 C-4.98639839 642.90796426 -14.40223365 647.68660152 -25.1875 648 C-34.9481379 647.17466059 -44.13614894 642.71736502 -53.125 639.125 C-54.90762794 638.4196543 -56.69059582 637.71516724 -58.47387695 637.01147461 C-62.31929516 635.49315195 -66.16301554 633.97062646 -70.00585938 632.44580078 C-76.48047194 629.8800289 -82.96599209 627.34251215 -89.453125 624.80859375 C-91.70712322 623.92759871 -93.96111087 623.04657663 -96.21508789 622.16552734 C-99.49972349 620.88167212 -102.7843887 619.59789408 -106.06930542 618.3147583 C-112.12916391 615.9462523 -118.18469016 613.56723012 -124.2333374 611.17022705 C-126.22796483 610.38009892 -128.22347184 609.59218813 -130.2197876 608.80633545 C-133.17763475 607.63922754 -136.13034948 606.45994491 -139.08203125 605.27734375 C-139.95389572 604.93522354 -140.82576019 604.59310333 -141.7240448 604.24061584 C-162.2117206 595.96082554 -176.51216677 582.00731152 -185.40966797 561.88330078 C-189.0769542 553.00400199 -190.34221575 543.78288648 -190.32172108 534.22359753 C-190.32407331 533.46789869 -190.32642554 532.71219985 -190.32884905 531.93360105 C-190.33549862 529.40487203 -190.33508205 526.87619488 -190.33467102 524.34745789 C-190.33797217 522.51458322 -190.34169827 520.68170927 -190.3458125 518.84883624 C-190.35581216 513.81429972 -190.35954602 508.77977512 -190.36220181 503.74523008 C-190.36611094 498.31414179 -190.37568889 492.88306288 -190.38441467 487.45198059 C-190.40416249 474.33641798 -190.41424342 461.22085461 -190.42314246 448.10528085 C-190.42752835 441.92471261 -190.4328944 435.74414522 -190.43813133 429.56357765 C-190.45514236 409.01044105 -190.46963554 388.45730497 -190.47688007 367.90416241 C-190.47878988 362.57242011 -190.48070856 357.24067782 -190.48266602 351.90893555 C-190.48290617 351.24656957 -190.48314632 350.5842036 -190.48339374 349.90176593 C-190.49128076 328.44252979 -190.51470077 306.98334902 -190.54722196 285.52413705 C-190.58157384 262.81528891 -190.60123511 240.10647311 -190.60452431 217.39759856 C-190.60668661 205.02721909 -190.61539422 192.65692099 -190.64098549 180.28656578 C-190.66273463 169.74925194 -190.67072219 159.21203927 -190.66101871 148.67470553 C-190.65648617 143.30336607 -190.65829923 137.93223514 -190.67778015 132.56092453 C-190.69549963 127.63246733 -190.69434336 122.70436945 -190.67888286 117.77590797 C-190.67652005 116.00393347 -190.68076045 114.23193351 -190.69271151 112.45999774 C-190.83427413 90.06277648 -186.07221706 69.75255457 -170.8671875 52.67578125 C-156.51494348 38.34445887 -137.31726329 31.62310249 -118.75 24.5 C-116.73155368 23.71903285 -114.71341097 22.9372806 -112.69555664 22.15478516 C-108.56302451 20.55315215 -104.42904754 18.95533671 -100.29394531 17.36035156 C-91.7635014 14.06713425 -83.25057255 10.72927978 -74.73571777 7.39602661 C-68.24529658 4.85768531 -61.74983992 2.33225669 -55.25500488 -0.19476318 C-53.33055978 -0.94428211 -51.40694525 -1.69593262 -49.48339844 -2.44775391 C-46.49107938 -3.61664236 -43.49621398 -4.77864097 -40.5 -5.9375 C-39.7052124 -6.24961426 -38.9104248 -6.56172852 -38.09155273 -6.88330078 C-23.84203367 -12.35437078 -11.93414297 -9.34801656 0 0 Z M-32.20703125 19.3046875 C-32.88563202 19.57455978 -33.56423279 19.84443207 -34.26339722 20.1224823 C-36.51626064 21.02283134 -38.75757093 21.94900305 -41 22.875 C-42.59726262 23.51818624 -44.19534496 24.15934011 -45.79418945 24.79858398 C-49.18400594 26.15567708 -52.57008176 27.52158665 -55.95410156 28.89306641 C-63.70255459 32.02400829 -71.49777316 35.0347172 -79.28887939 38.05749512 C-83.58613339 39.72747185 -87.8787045 41.40940388 -92.171875 43.08984375 C-97.91803487 45.33829901 -103.66850294 47.57477601 -109.42729187 49.79069519 C-112.45248853 50.95598172 -115.47494638 52.12826266 -118.49697876 53.30172729 C-119.88907586 53.84029125 -121.28240614 54.37568112 -122.67709351 54.90750122 C-138.38090528 60.89840697 -151.82730378 67.95393487 -159.484375 83.66015625 C-162.3920828 90.64497608 -163.33822515 97.07970932 -163.31892776 104.63887978 C-163.3209804 105.3918456 -163.32303303 106.14481142 -163.32514787 106.92059439 C-163.33080642 109.44599098 -163.32936203 111.97133282 -163.32794189 114.49673462 C-163.33052619 116.32477264 -163.33353953 118.15281009 -163.3369453 119.98084676 C-163.34501102 125.0064249 -163.34680463 130.03198876 -163.34754276 135.0575726 C-163.34939406 140.47697409 -163.35694178 145.89636818 -163.36367798 151.31576538 C-163.37725878 163.16707651 -163.38328563 175.01838425 -163.38768864 186.86970186 C-163.39045148 194.27007271 -163.39468891 201.67044226 -163.39919281 209.07081223 C-163.41138514 229.56129944 -163.42168453 250.05178562 -163.4250679 270.54227638 C-163.42528747 271.85366631 -163.42550703 273.16505623 -163.42573325 274.51618525 C-163.42595153 275.83070804 -163.42616981 277.14523084 -163.4263947 278.49958766 C-163.42683817 281.16329932 -163.42728473 283.82701099 -163.42773438 286.49072266 C-163.42784377 287.15116639 -163.42795316 287.81161011 -163.42806586 288.49206729 C-163.43180861 310.56825522 -163.4490809 332.64440615 -163.4730939 354.72058065 C-163.4968106 376.70183112 -163.5092699 398.68306451 -163.51043582 420.66432798 C-163.5113524 433.00545123 -163.51710043 445.34653012 -163.53525543 457.68764114 C-163.55066069 468.19659372 -163.55577434 478.70548823 -163.54751733 489.21444996 C-163.54361237 494.57487738 -163.54453303 499.93518788 -163.55857468 505.29560089 C-163.57132252 510.20708014 -163.57010822 515.11835472 -163.55798396 520.02983372 C-163.55602851 521.80240185 -163.55909835 523.57498452 -163.56782833 525.34753223 C-163.64522767 542.13143515 -161.46466952 556.4438039 -149.1875 569 C-137.09785883 579.10166958 -120.89308133 583.74858756 -106.375 589.375 C-104.58706045 590.06997969 -102.79922066 590.76521607 -101.01147461 591.46069336 C-97.29090461 592.90787405 -93.56990884 594.35395222 -89.84863281 595.79931641 C-81.51829278 599.03609974 -73.19404248 602.28848369 -64.86929321 605.53961182 C-62.33570326 606.5290311 -59.80203781 607.5182566 -57.26831055 608.50732422 C-56.46998306 608.8192572 -55.67165558 609.13119019 -54.84913635 609.45257568 C-53.28144288 610.0636485 -51.71280508 610.67230491 -50.14317322 611.27838135 C-46.14043022 612.82702533 -42.16468051 614.42035735 -38.21044922 616.08935547 C-36.99270058 616.59232399 -36.99270058 616.59232399 -35.75035095 617.10545349 C-34.2085161 617.7433699 -32.67261439 618.39589962 -31.14430237 619.06556702 C-27.37652416 620.60591834 -25.76857528 621.13538088 -21.67602539 620.18188477 C-20.85481201 619.79186279 -20.03359863 619.40184082 -19.1875 619 C-19.1875 618.34 -19.1875 617.68 -19.1875 617 C-18.5275 617 -17.8675 617 -17.1875 617 C-7.50072898 606.26217172 -3.85995846 589.7375008 -3.93023109 575.62882137 C-3.92497198 574.27311259 -3.92497198 574.27311259 -3.91960663 572.89001575 C-3.91032235 569.86948111 -3.9152083 566.84914053 -3.92007446 563.82859802 C-3.9163367 561.63783822 -3.91173468 559.44707975 -3.90634382 557.2563234 C-3.89411383 551.2418948 -3.8943743 545.22752182 -3.89673257 539.21308362 C-3.89714074 532.72411389 -3.8861015 526.23516199 -3.87661743 519.74620056 C-3.8595719 507.03454681 -3.85448187 494.32290889 -3.85339268 481.61124491 C-3.85247298 471.27692513 -3.84835311 460.94261136 -3.84199142 450.60829353 C-3.84019628 447.63166128 -3.83841665 444.65502902 -3.83664167 441.67839676 C-3.83619957 440.9383539 -3.83575748 440.19831104 -3.83530198 439.43584264 C-3.82299562 418.62297982 -3.81510063 397.81011908 -3.81598854 376.99725246 C-3.8160197 376.21276845 -3.81605086 375.42828443 -3.81608296 374.62002816 C-3.81624917 370.64410879 -3.81644725 366.66818941 -3.81665237 362.69227003 C-3.81669226 361.90266635 -3.81673215 361.11306266 -3.81677325 360.29953159 C-3.81685413 358.70275992 -3.81693772 357.10598826 -3.81702404 355.5092166 C-3.81824909 330.67531042 -3.80324395 305.8414589 -3.77587891 281.00756836 C-3.7451321 253.09334462 -3.72794802 225.17915679 -3.72980535 197.26491505 C-3.72995461 194.28608231 -3.73005202 191.30724957 -3.73011398 188.32841682 C-3.73014895 187.22825865 -3.73014895 187.22825865 -3.73018462 186.10587505 C-3.73024607 174.32201442 -3.71749456 162.53820136 -3.70024945 150.75435485 C-3.68326372 138.90223817 -3.68168406 127.05019663 -3.6944681 115.19807433 C-3.70099311 108.78194768 -3.7011315 102.36599277 -3.6837616 95.94988251 C-3.66800553 90.06927216 -3.67092077 84.18896939 -3.68832986 78.30836643 C-3.69139415 76.18790582 -3.68778908 74.06742211 -3.67660971 71.94698875 C-3.5871723 53.77032166 -5.39053147 36.48605759 -16.6875 21.375 C-21.89554204 16.42736006 -25.78863937 16.69071649 -32.20703125 19.3046875 Z " fill="#FCFCFC" transform="translate(391.1875,171)"/>
<path d="M0 0 C3.44504861 1.87192694 6.16715912 3.91643796 8.93536377 6.68139648 C9.68123749 7.42163055 10.42711121 8.16186462 11.19558716 8.92453003 C12.40056351 10.13557907 12.40056351 10.13557907 13.62988281 11.37109375 C14.48732086 12.22502716 15.34475891 13.07896057 16.22817993 13.95877075 C18.57051706 16.29382777 20.90828234 18.63327907 23.24379826 20.97514725 C25.69068269 23.42710546 28.14245467 25.87416868 30.59344482 28.32202148 C34.70587473 32.43081714 38.81407905 36.54380241 42.91992188 40.65917969 C47.66786673 45.41802253 52.4229932 50.16959806 57.18188596 54.91749096 C61.26973048 58.99626446 65.35367082 63.07891633 69.43436313 67.16484547 C71.87079599 69.60439719 74.30856203 72.04257542 76.74985504 74.4772644 C79.46820639 77.18877445 82.1783501 79.90839576 84.88769531 82.62890625 C86.10481705 83.83995529 86.10481705 83.83995529 87.3465271 85.07546997 C88.08112152 85.81570404 88.81571594 86.55593811 89.5725708 87.31860352 C90.21409718 87.96088394 90.85562355 88.60316437 91.51659012 89.26490784 C94.22479175 92.43259567 94.19268265 95.74255197 94.42578125 99.76953125 C93.10965679 106.66409149 86.34476604 111.93816636 81.60717773 116.65161133 C80.76285187 117.49944183 79.918526 118.34727234 79.0486145 119.22079468 C76.74461317 121.53206419 74.43620255 123.83880875 72.12538791 126.1432631 C69.70412809 128.55944122 67.28777219 130.98051582 64.87062073 133.40080261 C60.81487827 137.46017631 56.75495307 141.51533075 52.69262695 145.56811523 C47.99567564 150.2541616 43.30600225 154.94739912 38.62000126 159.64439374 C34.59216235 163.68130329 30.56044582 167.71430908 26.52545124 171.74406642 C24.11721385 174.14918572 21.71034847 176.55563621 19.30697441 178.96561623 C16.63059172 181.64705793 13.94791661 184.32203844 11.26342773 186.99536133 C10.46698349 187.79585403 9.67053925 188.59634674 8.84996033 189.4210968 C8.11958557 190.14583191 7.38921082 190.87056702 6.63670349 191.61726379 C5.6862926 192.56654361 5.6862926 192.56654361 4.71668148 193.5350008 C1.54367066 196.24281723 -1.87991413 196.34092038 -5.9375 196.28125 C-10.3464176 195.68003396 -13.07887409 193.0746469 -15.875 189.8125 C-17.44626232 185.88434421 -17.86756813 182.16022829 -17 178 C-14.18500201 173.31191099 -10.89683094 169.61902404 -7.03808594 165.81103516 C-6.4522876 165.22494476 -5.86648926 164.63885437 -5.26293945 164.03500366 C-3.3414577 162.11490604 -1.41300815 160.20197449 0.515625 158.2890625 C1.8555598 156.95286109 3.19505131 155.61621501 4.53411865 154.27914429 C8.04779556 150.77307815 11.56743851 147.27306173 15.08837891 143.77429199 C18.68495399 140.19823047 22.27582507 136.61645135 25.8671875 133.03515625 C32.90590301 126.01784555 39.95093766 119.00691591 47 112 C46.40557488 111.99940291 45.81114976 111.99880582 45.19871175 111.99819064 C9.97608075 111.96230452 -25.24645737 111.90567765 -60.46900824 111.82207905 C-64.69727468 111.81206147 -68.9255415 111.80221736 -73.15380859 111.79248047 C-73.9955881 111.7905391 -74.8373676 111.78859772 -75.70465557 111.78659752 C-89.33850253 111.75556793 -102.97233266 111.73859419 -116.60620828 111.72680578 C-130.59357883 111.71439918 -144.58086095 111.68690892 -158.56817567 111.64538693 C-167.20062545 111.62023741 -175.83292859 111.60688378 -184.46541552 111.60857043 C-190.38330388 111.60860016 -196.30104275 111.59399182 -202.21887286 111.56783572 C-205.63430903 111.55317333 -209.04943865 111.54500062 -212.46490097 111.55419731 C-216.16781795 111.56080375 -219.86983593 111.54299517 -223.57266235 111.51898193 C-224.65243272 111.52674235 -225.73220309 111.53450277 -226.84469378 111.54249835 C-232.87251966 111.47309617 -236.42854302 111.0560699 -241 107 C-244.09618503 102.70529173 -244.42083565 99.26816336 -243.6484375 94.1875 C-242.562345 90.5235735 -240.75912058 88.62773388 -238 86 C-235.09548342 85.03182781 -233.24797147 84.87072162 -230.226758 84.8613348 C-228.74432196 84.85312313 -228.74432196 84.85312313 -227.23193771 84.84474558 C-225.59917436 84.84327842 -225.59917436 84.84327842 -223.9334259 84.84178162 C-222.77930086 84.83684364 -221.62517582 84.83190566 -220.4360773 84.82681805 C-217.22760961 84.81408997 -214.01916543 84.80581482 -210.81068003 84.79939139 C-207.35261007 84.79139318 -203.89456224 84.77769341 -200.43650818 84.76467896 C-194.44353235 84.74290799 -188.45055429 84.72476576 -182.45755959 84.70907402 C-173.79264916 84.68638105 -165.12776321 84.65823742 -156.46287354 84.62875474 C-142.40535423 84.58107181 -128.34782492 84.53780952 -114.2902832 84.49731445 C-100.63304872 84.4579631 -86.97582313 84.41653773 -73.31860352 84.37231445 C-72.47705893 84.36959018 -71.63551435 84.36686591 -70.76846842 84.36405908 C-66.54677212 84.35037966 -62.32507595 84.33665938 -58.10337985 84.32291877 C-23.06893832 84.20894298 11.96552203 84.10213606 47 84 C46.07081001 83.07094597 46.07081001 83.07094597 45.12284851 82.12312317 C44.3110463 81.31139145 43.49924408 80.49965973 42.6628418 79.66333008 C41.45521431 78.45583855 41.45521431 78.45583855 40.22319031 77.22395325 C38.61248381 75.612694 37.00310069 74.00011149 35.39453125 72.38671875 C33.42219715 70.42081967 31.43855334 68.46814999 29.44921875 66.51953125 C28.19523615 65.28393164 26.94133117 64.04825327 25.6875 62.8125 C25.04232422 62.18408203 24.39714844 61.55566406 23.73242188 60.90820312 C23.12333984 60.30556641 22.51425781 59.70292969 21.88671875 59.08203125 C21.33201904 58.53780518 20.77731934 57.9935791 20.20581055 57.43286133 C19 56 19 56 19 54 C18.01 53.67 17.02 53.34 16 53 C16 52.34 16 51.68 16 51 C15.41734375 50.7421875 14.8346875 50.484375 14.234375 50.21875 C11.8197097 48.90165983 10.18259823 47.44911616 8.25 45.5 C7.63640625 44.8915625 7.0228125 44.283125 6.390625 43.65625 C5 42 5 42 5 40 C4.4225 39.7525 3.845 39.505 3.25 39.25 C0.67060021 37.81700012 -1.06121592 36.21575324 -3 34 C-3 33.34 -3 32.68 -3 32 C-3.57492187 31.74992187 -4.14984375 31.49984375 -4.7421875 31.2421875 C-7.31026142 29.82930254 -9.06244669 28.20323813 -11.125 26.125 C-11.80820312 25.44695312 -12.49140625 24.76890625 -13.1953125 24.0703125 C-16.79722181 19.93825203 -17.44893472 16.62182063 -17.31640625 11.25 C-16.67389175 6.68100797 -14.18330141 3.98608451 -10.75 1.125 C-7.13581839 -0.35352884 -3.84998924 -0.74374792 0 0 Z " fill="#FEFEFE" transform="translate(684,392)"/>
<path d="M0 0 C1.26177063 -0.00845947 2.52354126 -0.01691895 3.82354736 -0.02563477 C5.2142347 -0.01980238 6.60492075 -0.0136579 7.99560547 -0.00723267 C9.46604807 -0.01129955 10.93648762 -0.01664208 12.40692139 -0.02316284 C16.39451351 -0.03682851 20.38187254 -0.03154096 24.36946869 -0.02202559 C28.54449589 -0.01442509 32.71950326 -0.02147568 36.89453125 -0.02618408 C43.90547261 -0.0316405 50.91631913 -0.02445303 57.92724609 -0.01016235 C66.03037936 0.00616397 74.13328617 0.00087538 82.23641396 -0.01564157 C89.19621531 -0.0292597 96.15594852 -0.03117451 103.1157589 -0.02332556 C107.27140387 -0.01865083 111.42694244 -0.01801867 115.58258057 -0.02793503 C119.48966308 -0.03660719 123.3964539 -0.0305784 127.30350494 -0.01325226 C128.73658006 -0.00928873 130.16967976 -0.01041921 131.60274506 -0.01704025 C133.56034971 -0.02525023 135.51800807 -0.01312447 137.47558594 0 C139.11815872 0.00169662 139.11815872 0.00169662 140.79391479 0.00342751 C144.15647046 0.4346422 146.01835665 1.38902201 148.73779297 3.38095093 C152.93311182 9.07459795 152.88590765 14.82154567 152.87823486 21.67301941 C152.88120599 22.50469169 152.88417711 23.33636397 152.88723826 24.19323844 C152.89590537 26.9782316 152.89743182 29.76318168 152.89892578 32.54818726 C152.90355532 34.54577221 152.90858016 36.54335628 152.91397095 38.54093933 C152.92708283 43.96662687 152.9335374 49.39230204 152.93798161 54.81800294 C152.94091394 58.2083231 152.94501903 61.59863989 152.94948578 64.98895836 C152.96315675 75.59826543 152.97282569 86.20756478 152.97668767 96.81688005 C152.9811693 109.06077831 152.99872378 121.30456498 153.02768826 133.54842931 C153.04930552 143.0152458 153.05939196 152.48203089 153.06072879 161.94887179 C153.06177667 167.60194769 153.06768109 173.25491863 153.0855484 178.90796852 C153.10203003 184.22592212 153.10418407 189.54369187 153.09540939 194.86166191 C153.09463911 196.81111773 153.09898063 198.76058344 153.10886765 200.71001434 C153.12159468 203.37620492 153.1157063 206.04174504 153.10528564 208.70793152 C153.11737025 209.8584917 153.11737025 209.8584917 153.12969899 211.03229553 C153.08062608 216.41970209 151.98816578 220.46540619 149.73779297 225.38095093 C145.9856137 228.63283962 142.72699572 230.27913046 137.73779297 230.38095093 C133.09094189 228.85870661 129.88878444 227.1379023 126.73779297 223.38095093 C125.20855374 220.32247247 125.60449078 217.130576 125.61753845 213.77545166 C125.61625681 212.58457465 125.61625681 212.58457465 125.61494929 211.36963952 C125.61329501 208.69483925 125.61881501 206.02010094 125.62426758 203.3453064 C125.62454949 201.43370566 125.62439164 199.52210482 125.62382507 197.61050415 C125.62353724 192.40829973 125.62943164 187.20611821 125.63639903 182.00391912 C125.64263497 176.57199055 125.64323656 171.14006149 125.64442444 165.70812988 C125.64753704 155.41631131 125.65574948 145.12450331 125.66577393 134.8326894 C125.67693726 123.11823613 125.68244607 111.40378236 125.68746936 99.68932509 C125.69793215 75.58652783 125.71553023 51.48373997 125.73779297 27.38095093 C125.07941405 27.38371631 124.42103514 27.38648169 123.74270535 27.38933086 C107.70913666 27.45563757 91.67561579 27.50525427 75.64194393 27.53638744 C67.88811755 27.55184411 60.1343828 27.57291059 52.38061523 27.60726929 C45.62096407 27.6372085 38.86137928 27.65653466 32.10166365 27.66321641 C28.5237513 27.66712104 24.94602881 27.6762722 21.36817741 27.6981411 C17.37012247 27.72237929 13.3723958 27.72291803 9.37426758 27.7215271 C7.60265007 27.73770584 7.60265007 27.73770584 5.79524231 27.75421143 C-1.55466779 27.72653139 -6.96416521 27.33183045 -12.63720703 22.25595093 C-14.86112328 18.32132987 -15.58680348 14.8943872 -15.26220703 10.38095093 C-14.04928809 6.67084592 -12.17389147 4.05611702 -9.00515747 1.70944786 C-5.76917575 0.14216041 -3.58692707 0.00370494 0 0 Z " fill="#FCFCFC" transform="translate(455.26220703125,224.61904907226563)"/>
<path d="M0 0 C3.4522497 2.17641829 5.63470006 4.13165018 7 8 C7.98179171 12.76953044 8.14364882 17.41698955 8.13371277 22.26719666 C8.13597833 23.08409472 8.13824388 23.90099278 8.14057809 24.74264532 C8.14689282 27.4715925 8.14609036 30.2004897 8.14526367 32.92944336 C8.1482567 34.88938969 8.15165956 36.84933543 8.15544128 38.8092804 C8.16426983 44.12741047 8.16661889 49.44552445 8.16725707 54.76366115 C8.1679681 58.08680752 8.1701034 61.40994981 8.17275429 64.73309517 C8.18200315 76.32784408 8.18608965 87.9225815 8.18530273 99.51733398 C8.18470171 110.32368103 8.19525955 121.1299782 8.2110464 131.93631262 C8.22412134 141.21714797 8.22948667 150.49796702 8.22884732 159.77881151 C8.22859237 165.32059106 8.23144235 170.86232624 8.24202538 176.4040966 C8.25170581 181.61533158 8.25178588 186.82647978 8.24450874 192.03771782 C8.24346291 193.94888943 8.2458257 195.86006645 8.2518692 197.77122879 C8.25959214 200.38286105 8.25494234 202.99419384 8.24723816 205.6058197 C8.25238172 206.35952675 8.25752529 207.1132338 8.26282471 207.88978046 C8.2228085 214.04098086 7.60700346 219.10456002 3.5625 223.875 C-0.28430585 227.06503412 -3.13442372 227.128154 -7.977005 227.14717102 C-9.22616699 227.15432632 -10.47532898 227.16148163 -11.76234436 227.16885376 C-13.14926123 227.17169397 -14.53617836 227.17440571 -15.9230957 227.17700195 C-17.38176638 227.18326751 -18.84043545 227.18991439 -20.29910278 227.19691467 C-25.09131765 227.21794462 -29.88353281 227.22831531 -34.67578125 227.23828125 C-36.32589421 227.24232905 -37.976007 227.24644598 -39.62611961 227.25063133 C-47.37780109 227.2696798 -55.12947305 227.28391217 -62.88117343 227.2922433 C-71.8283051 227.30201815 -80.77518953 227.32834545 -89.72223407 227.36874419 C-96.63868142 227.39890232 -103.55505789 227.41371184 -110.47156972 227.41702431 C-114.60219905 227.41937495 -118.73256415 227.4283371 -122.86312294 227.45348549 C-126.74968381 227.47676643 -130.63580645 227.48099959 -134.52241898 227.47072411 C-135.94702932 227.47022865 -137.37166124 227.47655208 -138.79620552 227.49028015 C-152.19794156 227.61218092 -152.19794156 227.61218092 -157 223 C-160.0948796 218.70710249 -160.43321694 215.26234025 -159.63671875 210.18359375 C-158.53711325 206.41255403 -156.91807309 204.65868882 -154 202 C-148.12662357 199.18745733 -141.83947918 199.73433152 -135.47705078 199.77294922 C-133.58842064 199.77251114 -133.58842064 199.77251114 -131.66163635 199.77206421 C-128.22196107 199.77149202 -124.7824262 199.78322454 -121.34278345 199.79721212 C-117.74333063 199.80974187 -114.14387434 199.81089175 -110.54440308 199.81326294 C-103.73408145 199.81947113 -96.92382428 199.83587296 -90.11353099 199.85596192 C-82.35780485 199.87834154 -74.60207557 199.88931953 -66.84632516 199.89935279 C-50.89751282 199.9202398 -34.94876473 199.95540287 -19 200 C-19.00368717 199.01601416 -19.00737434 198.03202831 -19.01117325 197.01822472 C-19.09994852 173.08211891 -19.16569211 149.14603444 -19.20724869 125.20979881 C-19.227879 113.63443528 -19.25600868 102.05918047 -19.30175781 90.48388672 C-19.34161107 80.3955432 -19.3674294 70.30727841 -19.37635398 60.21885836 C-19.38157126 54.87647229 -19.39384371 49.53431145 -19.42292023 44.19199753 C-19.45006532 39.16382217 -19.45844676 34.13596491 -19.45243073 29.10772324 C-19.45353136 27.26223523 -19.4614906 25.41673661 -19.4768219 23.57131195 C-19.49673586 21.05068065 -19.49193444 18.53124889 -19.48101807 16.0105896 C-19.49266943 15.28100458 -19.5043208 14.55141955 -19.51632524 13.79972589 C-19.457222 8.74773728 -18.20877954 5.86937451 -15 2 C-9.54529729 -1.251842 -5.98397721 -1.44773642 0 0 Z " fill="#FCFCFC" transform="translate(600,528)"/>
<path d="M0 0 C2.65619365 2.21349471 4.45969742 3.91939484 6 7 C6.1071768 9.12794395 6.14889226 11.25928644 6.16113281 13.38989258 C6.16609772 14.04539597 6.17106262 14.70089935 6.17617798 15.37626648 C6.19080544 17.54903202 6.19760315 19.72172452 6.203125 21.89453125 C6.20887676 23.40427147 6.21463449 24.91401166 6.22039795 26.42375183 C6.23091013 29.59215638 6.23675111 32.76053554 6.24023438 35.92895508 C6.24571421 39.98434083 6.26973009 44.03938999 6.29820633 48.0946703 C6.31685386 51.2148282 6.32203946 54.33490545 6.32357025 57.45511436 C6.32659345 58.94981409 6.33461078 60.4445125 6.34775543 61.93915749 C6.36485798 64.03367111 6.3629258 66.12736823 6.35644531 68.22192383 C6.36009094 69.41280106 6.36373657 70.60367828 6.36749268 71.8306427 C5.96116608 75.33491438 5.08471922 77.18437107 3 80 C-0.79636816 82.95273079 -4.21253537 83.83491501 -9 84 C-13.40876987 82.72967648 -15.47939112 81.64391098 -18.375 78.0625 C-20.75794659 73.57156219 -21.12829783 70.12429937 -21.16113281 65.05737305 C-21.17074036 63.85900314 -21.1803479 62.66063324 -21.19024658 61.4259491 C-21.19449646 60.13425308 -21.19874634 58.84255707 -21.203125 57.51171875 C-21.20888242 56.16657003 -21.21464007 54.8214213 -21.22039795 53.47627258 C-21.23088906 50.65776184 -21.23674393 47.83927946 -21.24023438 45.02075195 C-21.2457123 41.42297115 -21.26973283 37.82557007 -21.29820633 34.22790813 C-21.3169032 31.4490909 -21.32204205 28.67036383 -21.32357025 25.89148903 C-21.32803899 23.92457818 -21.34665066 21.95771573 -21.36553955 19.9908905 C-21.34962348 13.58528636 -21.27968391 8.58831837 -18 3 C-12.27586445 -2.57736284 -7.27272634 -2.67055548 0 0 Z " fill="#FCFCFC" transform="translate(364,449)"/>
</svg>