<?xml version="1.0" encoding="UTF-8"?>
<svg version="1.1" xmlns="http://www.w3.org/2000/svg" width="1300" height="1300">
<path d="M0 0 C5.61492114 2.01476582 11.01187269 4.45851618 16.375 7.0625 C17.27677979 7.49804199 17.27677979 7.49804199 18.19677734 7.94238281 C38.76395666 17.91277983 57.6326471 29.52799993 74.8119812 44.68661499 C75.91735923 45.65965067 77.0291173 46.62546103 78.14529419 47.58609009 C83.0095532 51.78714247 87.64856879 56.16194903 92.20703125 60.69140625 C92.92428879 61.40296371 93.64154633 62.11452118 94.38053894 62.84764099 C95.88861938 64.34633825 97.39530019 65.84644513 98.90063477 67.34790039 C101.16427073 69.60186992 103.43837867 71.84490412 105.71289062 74.08789062 C114.31052606 82.62312975 122.16750951 91.32626216 129.375 101.0625 C130.42892182 102.43678545 131.48345403 103.81060342 132.5390625 105.18359375 C159.33316118 140.99408623 174.61185264 183.76143421 179.375 228.0625 C179.50648438 229.22394531 179.63796875 230.38539063 179.7734375 231.58203125 C185.36591964 290.4542419 167.5748271 353.3168555 131.375 400.0625 C130.40820312 401.31740234 130.40820312 401.31740234 129.421875 402.59765625 C125.32486829 407.81569432 121.00622523 412.78717394 116.53125 417.68359375 C114.57884564 419.83760509 112.69222641 422.03277726 110.8125 424.25 C107.90747032 427.59782866 104.73214608 430.41273214 101.35546875 433.2734375 C98.64516466 435.72179898 96.32682762 438.43509402 93.96484375 441.21484375 C91.88935791 443.62689486 89.65406632 445.84340911 87.375 448.0625 C86.488125 448.990625 85.60125 449.91875 84.6875 450.875 C82.375 453.0625 82.375 453.0625 80.375 453.0625 C80.148125 453.619375 79.92125 454.17625 79.6875 454.75 C77.41899551 458.74688886 74.75600054 461.60216649 70.375 463.0625 C70.08625 463.64 69.7975 464.2175 69.5 464.8125 C67.98116932 467.85016137 65.82656267 469.7249635 63.375 472.0625 C62.529375 472.949375 61.68375 473.83625 60.8125 474.75 C58.375 477.0625 58.375 477.0625 56.1875 478.125 C53.83698896 479.34078157 53.50251731 480.73229756 52.375 483.0625 C51.385 483.3925 50.395 483.7225 49.375 484.0625 C49.08625 484.64 48.7975 485.2175 48.5 485.8125 C46.97887378 488.85475245 44.88786104 490.80092507 42.375 493.0625 C41.715 493.0625 41.055 493.0625 40.375 493.0625 C40.148125 493.619375 39.92125 494.17625 39.6875 494.75 C37.41899551 498.74688886 34.75600054 501.60216649 30.375 503.0625 C30.08625 503.64 29.7975 504.2175 29.5 504.8125 C27.37593679 509.06062641 23.60231735 511.88790988 20 514.875 C16.57548753 517.74620696 13.7725904 520.96732486 10.953125 524.42578125 C9.375 526.0625 9.375 526.0625 6.375 527.0625 C6.065625 527.701875 5.75625 528.34125 5.4375 529 C4.1407662 531.51718915 2.9528263 532.03136948 0.375 533.0625 C0.375 533.7225 0.375 534.3825 0.375 535.0625 C-0.285 535.0625 -0.945 535.0625 -1.625 535.0625 C-1.625 535.7225 -1.625 536.3825 -1.625 537.0625 C-2.285 537.0625 -2.945 537.0625 -3.625 537.0625 C-3.8725 537.68125 -4.12 538.3 -4.375 538.9375 C-5.86240369 541.46608627 -7.06178009 541.78089004 -9.625 543.0625 C-10.30768138 544.38770503 -10.9757041 545.72062182 -11.625 547.0625 C-12.615 547.3925 -13.605 547.7225 -14.625 548.0625 C-14.91375 548.64 -15.2025 549.2175 -15.5 549.8125 C-17.02112622 552.85475245 -19.11213896 554.80092507 -21.625 557.0625 C-22.285 557.0625 -22.945 557.0625 -23.625 557.0625 C-23.9653125 557.8978125 -23.9653125 557.8978125 -24.3125 558.75 C-26.58100449 562.74688886 -29.24399946 565.60216649 -33.625 567.0625 C-33.91375 567.64 -34.2025 568.2175 -34.5 568.8125 C-36.01883068 571.85016137 -38.17343733 573.7249635 -40.625 576.0625 C-41.470625 576.949375 -42.31625 577.83625 -43.1875 578.75 C-45.625 581.0625 -45.625 581.0625 -47.8125 582.125 C-50.16301104 583.34078157 -50.49748269 584.73229756 -51.625 587.0625 C-52.615 587.3925 -53.605 587.7225 -54.625 588.0625 C-55.3155786 589.38360689 -55.98032724 590.71839463 -56.625 592.0625 C-58.10546875 593.484375 -58.10546875 593.484375 -59.8125 594.8125 C-63.26848867 597.65057801 -66.10528671 600.78098395 -69 604.1796875 C-71.08990747 606.60116683 -73.33400065 608.83179011 -75.625 611.0625 C-76.388125 611.84625 -77.15125 612.63 -77.9375 613.4375 C-80.71923605 616.15454451 -83.60783637 618.69298915 -86.5625 621.21875 C-88.08062061 622.57585782 -89.54807975 623.99016458 -90.984375 625.43359375 C-104.98342462 639.37051741 -121.26476857 650.73592275 -138.625 660.0625 C-139.35477051 660.46210937 -140.08454102 660.86171875 -140.83642578 661.2734375 C-157.19927615 670.23008792 -173.73504891 676.82115285 -191.625 682.0625 C-192.60774902 682.35253906 -192.60774902 682.35253906 -193.61035156 682.6484375 C-240.57090767 696.21318212 -292.54618343 693.61371566 -338.625 678.0625 C-339.6152417 677.73693115 -339.6152417 677.73693115 -340.62548828 677.40478516 C-367.61413096 668.4269728 -392.70361818 654.07590422 -414.625 636.0625 C-415.62160645 635.24394531 -416.61821289 634.42539063 -417.64501953 633.58203125 C-426.83503371 625.92166531 -435.34853933 617.64848458 -443.78027344 609.16796875 C-446.03870829 606.89860438 -448.30791906 604.6403954 -450.578125 602.3828125 C-452.01887256 600.94074669 -453.45900142 599.49806241 -454.8984375 598.0546875 C-455.57635345 597.38082001 -456.25426941 596.70695251 -456.95272827 596.01266479 C-457.5682254 595.39086334 -458.18372253 594.76906189 -458.81787109 594.12841797 C-459.63389297 593.31000931 -459.63389297 593.31000931 -460.46640015 592.47506714 C-461.625 591.0625 -461.625 591.0625 -461.625 589.0625 C-462.285 589.0625 -462.945 589.0625 -463.625 589.0625 C-465.39599257 587.01601969 -467.05079758 584.96288548 -468.6875 582.8125 C-469.17774658 582.17642822 -469.66799316 581.54035645 -470.1730957 580.88500977 C-471.18055113 579.57487692 -472.18501411 578.26243773 -473.18652344 576.94775391 C-474.47145223 575.26373827 -475.7699813 573.5901199 -477.0703125 571.91796875 C-482.44794813 564.91954747 -487.15713951 557.66993813 -491.625 550.0625 C-492.1504541 549.18996582 -492.1504541 549.18996582 -492.68652344 548.29980469 C-525.95191111 492.97704405 -533.59911509 424.10012169 -518.125 361.90234375 C-509.79190379 329.90938305 -495.36532484 299.79898917 -474.95898438 273.76660156 C-473.818957 272.31027084 -472.69667069 270.84008163 -471.578125 269.3671875 C-459.88593794 254.22730426 -445.67290053 240.96482361 -432.17041016 227.47851562 C-430.24983458 225.55713098 -428.33000287 223.63500365 -426.41012573 221.71292114 C-421.77389909 217.07228818 -417.13502261 212.43431324 -412.49513395 207.797342 C-408.72271654 204.02719713 -404.95129349 200.25606015 -401.18055344 196.48423767 C-400.64078928 195.94432028 -400.10102511 195.40440288 -399.54490446 194.84812436 C-398.44795757 193.7508577 -397.35101291 192.65358882 -396.25407045 191.55631775 C-386.01248993 181.31189801 -375.76786811 171.07052407 -365.5221725 160.83022016 C-356.74562531 152.05814854 -347.97171555 143.28344611 -339.19970703 134.50683594 C-328.98134599 124.28311692 -318.76135675 114.06103003 -308.53878248 103.84152365 C-307.4480369 102.75109658 -306.35729339 101.66066744 -305.26655197 100.57023621 C-304.73004188 100.03388039 -304.1935318 99.49752458 -303.64076383 98.94491556 C-299.87336304 95.17837559 -296.10711839 91.41068199 -292.34132767 87.64253235 C-287.75301841 83.05141169 -283.16291759 78.46209114 -278.57054718 73.8750326 C-276.23104803 71.53815102 -273.89260926 69.20022613 -271.55580902 66.86064529 C-269.01743186 64.31952661 -266.47597996 61.78152241 -263.93374634 59.2442627 C-263.20397288 58.51225852 -262.47419942 57.78025434 -261.72231162 57.02606821 C-238.08823187 33.48130459 -210.78898433 16.90716687 -180.625 3.0625 C-179.65706671 6.11259557 -179.62581748 7.98458849 -180.515625 11.046875 C-180.72920654 11.8087915 -180.94278809 12.57070801 -181.1628418 13.35571289 C-181.397854 14.16645264 -181.63286621 14.97719238 -181.875 15.8125 C-187.69630373 36.94666975 -190.04875791 57.99121328 -190 79.875 C-189.99968277 81.20404358 -189.99968277 81.20404358 -189.99935913 82.55993652 C-189.94769348 104.41817948 -187.26811497 125.41402944 -181.7734375 146.609375 C-181.60232397 147.30392973 -181.43121045 147.99848445 -181.25491166 148.71408629 C-180.66835994 151.04668228 -180.66835994 151.04668228 -179.8379209 153.18290353 C-178.75026578 156.49825035 -178.02566045 158.87778773 -179.65110064 162.09078932 C-181.43863491 164.26035619 -183.3430969 166.17920936 -185.378479 168.11859131 C-186.12925524 168.87664952 -186.88003147 169.63470772 -187.65355849 170.41573739 C-190.18148472 172.95477636 -192.74671825 175.45241704 -195.31347656 177.95214844 C-197.13182567 179.76248456 -198.94773808 181.57527099 -200.76138306 183.39031982 C-204.67481048 187.29928268 -208.60769674 191.18774005 -212.55432892 195.06316376 C-218.27286865 200.67885976 -223.95921275 206.32627825 -229.63800332 211.98213413 C-238.86877119 221.17417891 -248.12272467 230.34250117 -257.39257812 239.49511719 C-266.36818449 248.35734868 -275.33671558 257.22660552 -284.29296875 266.10839844 C-285.11864764 266.92719807 -285.11864764 266.92719807 -285.96100691 267.76253912 C-291.98203702 273.73387257 -298.00070676 279.70757914 -304.0172081 285.68347549 C-304.54756992 286.21024327 -305.07793174 286.73701105 -305.62436514 287.27974148 C-307.74598971 289.38702057 -309.86761313 291.49430074 -311.98896429 293.60185507 C-318.1778564 299.75030837 -324.37375734 305.89149379 -330.58288035 312.01951936 C-334.9496434 316.32949758 -339.30930453 320.64659218 -343.66666794 324.96607208 C-345.44642645 326.72754269 -347.22884275 328.48633291 -349.01420212 330.24212646 C-360.430672 341.47214364 -371.65461229 352.66940929 -379.375 366.875 C-379.73932129 367.53604736 -380.10364258 368.19709473 -380.47900391 368.87817383 C-395.56709955 397.05437715 -397.59984391 429.61596776 -388.625 460.0625 C-386.10807338 468.17480365 -382.45492621 475.72694958 -378.4375 483.1875 C-377.96715332 484.08263306 -377.96715332 484.08263306 -377.48730469 484.99584961 C-370.87136301 496.71171031 -360.52952008 506.53128348 -351.08349609 515.97460938 C-349.37913699 517.68335237 -347.69150653 519.40753601 -346.00390625 521.1328125 C-323.3701056 543.99963184 -295.13735637 558.80112029 -262.37036133 559.30419922 C-233.20497276 559.39658934 -204.52474756 551.04121708 -182.625 531.0625 C-181.3360042 529.97599013 -180.04463677 528.89228216 -178.75 527.8125 C-173.97963772 523.67517158 -169.79122818 519.17196365 -165.76171875 514.3203125 C-163.89482695 512.34761879 -161.99816205 510.62774377 -159.93945312 508.86328125 C-155.94900888 505.38949509 -152.18077758 501.74800677 -148.45703125 497.9921875 C-147.81432785 497.34806915 -147.17162445 496.70395081 -146.50944519 496.04031372 C-144.48307085 494.00840995 -142.46021951 491.97304143 -140.4375 489.9375 C-139.07119838 488.56617223 -137.7046637 487.19507663 -136.33789062 485.82421875 C-133.83034431 483.30855987 -131.32413947 480.79158176 -128.81958008 478.27294922 C-126.09278589 475.53137987 -123.36041914 472.7954678 -120.625 470.0625 C-119.66661951 469.10421383 -118.70828886 468.14587781 -117.75 467.1875 C-111 460.4375 -104.25 453.6875 -97.5 446.9375 C-97.01850998 446.45568268 -96.53701996 445.97386536 -96.04093933 445.47744751 C-94.64460149 444.08208776 -93.24480919 442.69018768 -91.8449707 441.29833984 C-90.04515355 439.48565695 -88.41384709 437.67104171 -86.8125 435.6875 C-84.72814724 433.22512861 -82.58642294 431.08354991 -80.125 429 C-74.19288161 423.96286272 -68.815106 418.33674618 -63.35083008 412.80419922 C-61.1164919 410.54931613 -58.87051891 408.3062528 -56.625 406.0625 C-55.39122787 404.82882422 -54.15750848 403.59509569 -52.92382812 402.36132812 C-34.15755208 383.59505208 -15.39127604 364.82877604 3.375 346.0625 C4.68561401 344.74862305 4.68561401 344.74862305 6.02270508 343.40820312 C7.5651391 341.87009144 9.12361019 340.34786035 10.69921875 338.84375 C32.97439637 317.34176036 47.78806604 288.64843625 48.54296875 257.30078125 C48.90844554 218.21441439 34.38508864 189.39623345 7.48866272 161.86335754 C5.76749355 160.11300893 4.04131767 158.36779368 2.3125 156.625 C1.72049805 156.02710663 1.12849609 155.42921326 0.51855469 154.8132019 C-7.35847023 146.89375446 -15.15489465 139.68813299 -24.78125 133.91015625 C-33.99677348 127.92259773 -37.06874857 113.03262037 -39.42407227 102.75097656 C-45.58287288 72.81469832 -38.98831049 43.68168153 -22.375 18.375 C-18.56038461 12.80282421 -14.52411983 7.72263837 -9.625 3.0625 C-8.903125 2.2375 -8.18125 1.4125 -7.4375 0.5625 C-4.12206783 -1.20573049 -3.49726151 -0.97790725 0 0 Z " fill="#2C5282" transform="translate(650.625,483.9375)"/>
<path d="M0 0 C44.05647736 -1.23857662 87.20746122 9.06252513 125.9453125 30.06201172 C126.53812012 30.37847656 127.13092773 30.69494141 127.74169922 31.02099609 C141.16252724 38.22651552 153.09694546 47.24681688 164.984375 56.71435547 C166.73724183 58.10416149 168.51562754 59.46420457 170.34375 60.75341797 C170.87226562 61.18525391 171.40078125 61.61708984 171.9453125 62.06201172 C171.9453125 62.72201172 171.9453125 63.38201172 171.9453125 64.06201172 C172.5326265 64.32466324 173.11994049 64.58731476 173.72505188 64.85792542 C176.0562556 66.12217811 177.59601192 67.45901141 179.46948242 69.32739258 C180.14085739 69.99246323 180.81223236 70.65753387 181.50395203 71.34275818 C182.22065567 72.06351028 182.93735931 72.78426239 183.67578125 73.52685547 C184.80056633 74.64877037 184.80056633 74.64877037 185.94807434 75.79335022 C187.53661075 77.38052555 189.12262389 78.97022974 190.70629883 80.56225586 C193.09958617 82.9661383 195.5031986 85.35931206 197.90820312 87.75146484 C205.70396708 95.53970873 213.25132558 103.29054842 219.9453125 112.06201172 C220.49082764 112.75351318 221.03634277 113.44501465 221.59838867 114.1574707 C228.83165359 123.35643435 235.28105475 132.82504589 240.9453125 143.06201172 C241.409375 143.89587402 241.8734375 144.72973633 242.3515625 145.58886719 C274.39852848 203.68442498 282.5567114 271.64741764 264.58984375 335.63232422 C262.33337726 343.28872958 259.60650909 350.75444995 256.68115234 358.17773438 C256.08414882 359.70649124 255.51949521 361.24785349 254.96484375 362.79248047 C245.49289704 388.62910507 228.37027287 412.68470464 209.97265625 432.81201172 C208.35506654 434.60725579 206.82202629 436.42132944 205.3203125 438.31201172 C202.93702655 441.07160598 200.43523366 443.3017201 197.640625 445.62451172 C195.2679277 447.63638409 193.11521982 449.83500157 190.9453125 452.06201172 C190.0996875 452.88701172 189.2540625 453.71201172 188.3828125 454.56201172 C185.88802626 457.0278493 185.88802626 457.0278493 183.7578125 459.87451172 C183.1596875 460.59638672 182.5615625 461.31826172 181.9453125 462.06201172 C181.2853125 462.06201172 180.6253125 462.06201172 179.9453125 462.06201172 C179.6771875 462.70138672 179.4090625 463.34076172 179.1328125 463.99951172 C177.9453125 466.06201172 177.9453125 466.06201172 174.9453125 467.06201172 C174.6565625 467.63951172 174.3678125 468.21701172 174.0703125 468.81201172 C172.54918628 471.85426417 170.45817354 473.80043679 167.9453125 476.06201172 C167.2853125 476.06201172 166.6253125 476.06201172 165.9453125 476.06201172 C165.7184375 476.61888672 165.4915625 477.17576172 165.2578125 477.74951172 C162.98930801 481.74640058 160.32631304 484.60167821 155.9453125 486.06201172 C155.6565625 486.63951172 155.3678125 487.21701172 155.0703125 487.81201172 C153.55148182 490.84967309 151.39687517 492.72447522 148.9453125 495.06201172 C148.0996875 495.94888672 147.2540625 496.83576172 146.3828125 497.74951172 C143.9453125 500.06201172 143.9453125 500.06201172 141.7578125 501.12451172 C139.40730146 502.34029329 139.07282981 503.73180928 137.9453125 506.06201172 C136.9553125 506.39201172 135.9653125 506.72201172 134.9453125 507.06201172 C134.6565625 507.63951172 134.3678125 508.21701172 134.0703125 508.81201172 C132.54918628 511.85426417 130.45817354 513.80043679 127.9453125 516.06201172 C127.2853125 516.06201172 126.6253125 516.06201172 125.9453125 516.06201172 C125.7184375 516.61888672 125.4915625 517.17576172 125.2578125 517.74951172 C122.98930801 521.74640058 120.32631304 524.60167821 115.9453125 526.06201172 C115.6565625 526.63951172 115.3678125 527.21701172 115.0703125 527.81201172 C112.94624929 532.06013813 109.17262985 534.8874216 105.5703125 537.87451172 C102.14580003 540.74571868 99.3429029 543.96683658 96.5234375 547.42529297 C94.9453125 549.06201172 94.9453125 549.06201172 91.9453125 550.06201172 C91.6565625 550.63951172 91.3678125 551.21701172 91.0703125 551.81201172 C89.55148182 554.84967309 87.39687517 556.72447522 84.9453125 559.06201172 C84.0996875 559.94888672 83.2540625 560.83576172 82.3828125 561.74951172 C79.9453125 564.06201172 79.9453125 564.06201172 77.7578125 565.12451172 C75.40730146 566.34029329 75.07282981 567.73180928 73.9453125 570.06201172 C72.9553125 570.39201172 71.9653125 570.72201172 70.9453125 571.06201172 C70.6565625 571.63951172 70.3678125 572.21701172 70.0703125 572.81201172 C68.54918628 575.85426417 66.45817354 577.80043679 63.9453125 580.06201172 C63.2853125 580.06201172 62.6253125 580.06201172 61.9453125 580.06201172 C61.605 580.89732422 61.605 580.89732422 61.2578125 581.74951172 C58.98930801 585.74640058 56.32631304 588.60167821 51.9453125 590.06201172 C51.6565625 590.63951172 51.3678125 591.21701172 51.0703125 591.81201172 C49.55148182 594.84967309 47.39687517 596.72447522 44.9453125 599.06201172 C44.0996875 599.94888672 43.2540625 600.83576172 42.3828125 601.74951172 C39.9453125 604.06201172 39.9453125 604.06201172 37.7578125 605.12451172 C35.37758006 606.35566643 35.07112453 607.66966114 33.9453125 610.06201172 C31.9453125 612.31201172 31.9453125 612.31201172 29.9453125 614.06201172 C29.2853125 614.06201172 28.6253125 614.06201172 27.9453125 614.06201172 C27.605 614.89732422 27.605 614.89732422 27.2578125 615.74951172 C25.57153983 618.72056357 23.4149585 620.70723297 20.9453125 623.06201172 C20.1203125 623.88701172 19.2953125 624.71201172 18.4453125 625.56201172 C17.6203125 626.38701172 16.7953125 627.21201172 15.9453125 628.06201172 C15.0996875 628.94888672 14.2540625 629.83576172 13.3828125 630.74951172 C10.9453125 633.06201172 10.9453125 633.06201172 8.7578125 634.12451172 C6.78581105 634.91640697 6.78581105 634.91640697 6.02734375 636.93701172 C4.01829894 640.88257264 0.31427274 643.28105313 -3.0546875 646.06201172 C-3.92746338 646.79315186 -3.92746338 646.79315186 -4.81787109 647.5390625 C-12.91228941 654.31469286 -20.96787893 660.64972282 -30.0546875 666.06201172 C-31.00988281 666.67044922 -31.96507812 667.27888672 -32.94921875 667.90576172 C-39.46160471 672.03436867 -46.11158694 675.77804258 -52.9296875 679.37451172 C-53.72632813 679.79514893 -54.52296875 680.21578613 -55.34375 680.64916992 C-67.64567303 687.06201172 -67.64567303 687.06201172 -72.0546875 687.06201172 C-71.02506767 682.38839175 -69.97792932 677.72185567 -68.87109375 673.06591797 C-58.39736752 628.23109226 -58.91685755 581.30273913 -72.23828125 537.10888672 C-73.0546875 534.06201172 -73.0546875 534.06201172 -73.0546875 530.06201172 C-71.75073242 528.58398438 -71.75073242 528.58398438 -69.84765625 527.10107422 C-66.01812273 523.93860985 -62.48079486 520.60109097 -58.98046875 517.08544922 C-58.44461151 516.54849426 -57.90875427 516.01153931 -57.35665894 515.45831299 C-55.69143828 513.78658456 -54.0292424 512.11188701 -52.3671875 510.43701172 C-51.24177293 509.30656791 -50.11612338 508.17635799 -48.99023438 507.04638672 C-46.92213003 504.97018934 -44.85539958 502.89264582 -42.7902832 500.81347656 C-40.21654 498.22480312 -37.63697848 495.64215615 -35.0546875 493.06201172 C-33.82091511 491.8283362 -32.58719619 490.5946072 -31.35351562 489.36083984 C-22.15429688 480.16162109 -12.95507812 470.96240234 -3.75585938 461.76318359 C-3.11702316 461.12402008 -2.47818695 460.48485657 -1.81999207 459.82632446 C-0.71563095 458.72258382 0.38988522 457.6199963 1.49711609 456.51913452 C3.70712885 454.32047666 5.79925764 452.11301623 7.7578125 449.68701172 C9.96159279 447.07072897 12.27366243 444.83574122 14.8828125 442.62451172 C18.31419909 439.71401873 21.1688741 436.57338532 24.06681824 433.14205933 C25.85116177 431.16626437 27.68632126 429.47233993 29.71606445 427.75390625 C33.68806154 424.32454792 37.41990983 420.71688195 41.11328125 416.99169922 C41.75598465 416.34758087 42.39868805 415.70346252 43.06086731 415.03982544 C45.08724165 413.00792167 47.11009299 410.97255315 49.1328125 408.93701172 C50.49911412 407.56568395 51.8656488 406.19458834 53.23242188 404.82373047 C55.73996819 402.30807158 58.24617303 399.79109348 60.75073242 397.27246094 C63.4775384 394.53090249 66.20991304 391.79500019 68.9453125 389.06201172 C69.9954904 388.01192921 71.04561692 386.96179531 72.09570312 385.91162109 C94.79492187 363.21240234 94.79492187 363.21240234 96.41577148 361.59179688 C97.85132602 360.1560132 99.28604398 358.71939321 100.72070312 357.28271484 C102.20251365 355.80350627 103.69409902 354.33402483 105.1953125 352.87451172 C112.17032961 345.7409715 118.55178416 338.47205479 123.9453125 330.06201172 C124.59371094 329.07072266 125.24210937 328.07943359 125.91015625 327.05810547 C141.95326694 300.97650325 145.94036716 268.62658035 138.9453125 239.06201172 C137.7994162 234.64982128 136.47271577 230.3564499 134.9453125 226.06201172 C134.61015625 225.10294922 134.275 224.14388672 133.9296875 223.15576172 C131.60372055 217.06238352 128.6060937 211.53662191 125.1953125 205.99951172 C124.62272705 205.0630481 124.62272705 205.0630481 124.03857422 204.10766602 C117.17728952 193.30594802 108.41144068 184.1785363 99.38989258 175.19091797 C97.63664604 173.44083833 95.89720261 171.67779789 94.15820312 169.91357422 C85.08607312 160.7890111 75.53742342 152.60659117 64.1953125 146.37451172 C63.52467773 146.00495361 62.85404297 145.63539551 62.16308594 145.25463867 C34.11161881 130.21117222 1.46895034 127.85515777 -28.87280273 137.01196289 C-57.53598542 146.17605167 -77.26813599 167.13159893 -98.05102539 187.86547852 C-99.94608224 189.75261891 -101.84131329 191.63958312 -103.73670959 193.52638245 C-109.38748415 199.15285142 -115.03350978 204.78407338 -120.67861596 210.41622874 C-122.27688189 212.01076968 -123.87527112 213.60518692 -125.47370219 215.19956231 C-135.43635999 225.13699411 -145.39741262 235.07603197 -155.35370731 245.01983929 C-157.64960339 247.31280661 -159.94551599 249.60575738 -162.24145508 251.89868164 C-163.09721683 252.75332431 -163.09721683 252.75332431 -163.97026669 253.6252325 C-173.21389988 262.85620952 -182.46777822 272.07684525 -191.725882 281.29330673 C-201.26511663 290.7899901 -210.79477643 300.29619914 -220.31536478 309.81157619 C-225.64743449 315.14024912 -230.98350584 320.4647694 -236.33043098 325.77853966 C-240.88219144 330.30211777 -245.42513861 334.83432704 -249.95727021 339.37757435 C-252.26331469 341.68875719 -254.57436447 343.99447982 -256.89409637 346.29193497 C-282.02386154 371.19361314 -299.79425852 399.81965808 -300.29638672 436.16674805 C-300.41466818 477.42262692 -282.4400027 505.79936501 -254.0546875 534.43701172 C-253.16760605 535.33542282 -253.16760605 535.33542282 -252.26260376 536.25198364 C-245.34542077 543.22917088 -238.55468533 549.67755457 -230.2421875 554.99951172 C-217.18001408 563.45441262 -214.87527269 578.00524382 -211.51049805 592.38818359 C-206.68415759 620.69995683 -213.44482661 649.71244937 -229.7734375 673.13623047 C-234.16833535 678.77283747 -238.98414476 684.02768714 -244.0546875 689.06201172 C-244.6425 689.74779297 -245.2303125 690.43357422 -245.8359375 691.14013672 C-249.21333507 692.54342162 -251.41691213 691.22923593 -254.70458984 689.88818359 C-255.99163818 689.32454102 -255.99163818 689.32454102 -257.3046875 688.74951172 C-258.19494629 688.37503906 -259.08520508 688.00056641 -260.00244141 687.61474609 C-268.20183019 684.11516783 -276.19556075 680.26636243 -284.0546875 676.06201172 C-285.21097656 675.44841797 -286.36726562 674.83482422 -287.55859375 674.20263672 C-301.60071219 666.47068527 -314.48394952 657.03442922 -326.49194336 646.43748474 C-327.59618607 645.46556872 -328.70704661 644.50114707 -329.82250977 643.54212952 C-334.72194698 639.31380505 -339.37797465 634.89913503 -343.95703125 630.32763672 C-345.04003258 629.24962799 -345.04003258 629.24962799 -346.14491272 628.14984131 C-347.66130824 626.63847413 -349.17638295 625.12578068 -350.69018555 623.61181641 C-352.97749827 621.32668693 -355.27269368 619.04968311 -357.56835938 616.77294922 C-365.18790837 609.18264864 -372.50608307 601.61128089 -379.0546875 593.06201172 C-379.79638184 592.11865967 -380.53807617 591.17530762 -381.30224609 590.20336914 C-401.74121224 564.05898812 -416.73010799 533.38763611 -424.54882812 501.13916016 C-425.05331094 499.06766412 -425.59210631 497.00712056 -426.1328125 494.94482422 C-440.42591188 438.25236976 -431.79726657 370.7173417 -402.0546875 320.06201172 C-401.38553495 318.87199989 -400.71897819 317.68052562 -400.0546875 316.48779297 C-396.66798471 310.43472351 -393.17178301 304.51498435 -389.18359375 298.83154297 C-387.88184709 296.94956258 -387.88184709 296.94956258 -387.0546875 294.06201172 C-385.41238973 292.37132736 -383.74162619 290.70815673 -382.0546875 289.06201172 C-380.39057163 287.11919027 -378.74593507 285.15957811 -377.1171875 283.18701172 C-364.81262877 268.47921402 -351.15613798 255.0178211 -337.60009766 241.47802734 C-335.67952208 239.5566427 -333.75969037 237.63451536 -331.83981323 235.71243286 C-327.20358659 231.0717999 -322.56471011 226.43382496 -317.92482145 221.79685372 C-314.15240404 218.02670885 -310.38098099 214.25557187 -306.61024094 210.48374939 C-306.07047678 209.943832 -305.53071261 209.4039146 -304.97459196 208.84763607 C-303.87764507 207.75036942 -302.78070041 206.65310054 -301.68375795 205.55582947 C-291.44217743 195.31140973 -281.19755561 185.07003579 -270.95186 174.82973188 C-262.17531281 166.05766026 -253.40140305 157.28295783 -244.62939453 148.50634766 C-234.41103349 138.28262864 -224.19104425 128.06054175 -213.96846998 117.84103537 C-212.8777244 116.7506083 -211.78698089 115.66017916 -210.69623947 114.56974792 C-210.15972938 114.03339211 -209.6232193 113.4970363 -209.07045133 112.94442728 C-205.30305054 109.17788731 -201.53680589 105.41019371 -197.77101517 101.64204407 C-193.18270591 97.05092341 -188.59260509 92.46160286 -184.00023468 87.87454432 C-181.66073553 85.53766274 -179.32229676 83.19973785 -176.98549652 80.86015701 C-174.44711936 78.31903832 -171.90566746 75.78103413 -169.36343384 73.24377441 C-168.63366038 72.51177023 -167.90388692 71.77976605 -167.15199912 71.02557993 C-152.72904306 56.65713001 -136.39254261 44.67069453 -119.0546875 34.06201172 C-118.42304687 33.67062012 -117.79140625 33.27922852 -117.140625 32.87597656 C-100.77036067 22.82864121 -82.44869529 15.48588581 -64.0546875 10.06201172 C-63.37792969 9.85769531 -62.70117188 9.65337891 -62.00390625 9.44287109 C-41.82865542 3.42664765 -21.00092801 0.63382078 0 0 Z " fill="#2C5282" transform="translate(901.0546875,124.93798828125)"/>
<path d="" fill="#CBCBCB" transform="translate(0,0)"/>
<path d="" fill="#CBCBCB" transform="translate(0,0)"/>
<path d="" fill="#CACACA" transform="translate(0,0)"/>
<path d="" fill="#C6C6C6" transform="translate(0,0)"/>
<path d="" fill="#CBCBCB" transform="translate(0,0)"/>
<path d="" fill="#CBCBCB" transform="translate(0,0)"/>
<path d="" fill="#C2C2C2" transform="translate(0,0)"/>
<path d="" fill="#C9C9C9" transform="translate(0,0)"/>
<path d="" fill="#C7C7C7" transform="translate(0,0)"/>
<path d="" fill="#C7C7C7" transform="translate(0,0)"/>
<path d="" fill="#CBCBCB" transform="translate(0,0)"/>
<path d="" fill="#CACACA" transform="translate(0,0)"/>
<path d="" fill="#C9C9C9" transform="translate(0,0)"/>
<path d="" fill="#C9C9C9" transform="translate(0,0)"/>
<path d="" fill="#C7C7C7" transform="translate(0,0)"/>
</svg>
