<svg xmlns="http://www.w3.org/2000/svg" version="1.1" viewBox="110.43 69.74 98.82 99.34">
<path d="M0 0 C8.13760049 6.59402902 14.52759779 15.40820347 16 26 C16.61785155 35.24751587 16.36880502 42.86088753 12.875 51.546875 C11.77602911 54.19383418 11.77602911 54.19383418 12 58 C13.64409094 60.18087767 13.64409094 60.18087767 15.90234375 62.2578125 C16.70994141 63.04800781 17.51753906 63.83820313 18.34960938 64.65234375 C19.20361328 65.46832031 20.05761719 66.28429687 20.9375 67.125 C22.61523807 68.750587 24.2911168 70.3780959 25.96484375 72.0078125 C26.7137085 72.72598145 27.46257324 73.44415039 28.23413086 74.18408203 C30.91947201 76.94553198 30.99164924 77.87056326 31.25 81.875 C31.19341472 84.47320741 30.99921734 86.00190773 30 88.4375 C26.92595295 90.83909926 23.79050673 91.28211787 20 91 C15.15770863 88.72708773 12.24573243 85.1065047 8.86328125 81.1015625 C3.00216595 74.25294514 3.00216595 74.25294514 -5 71 C-7.48302631 71.71856956 -7.48302631 71.71856956 -10.0625 72.875 C-20.57002482 76.88848428 -30.99843211 76.8415672 -41.62890625 73.06640625 C-52.12824543 68.31787883 -60.29774322 60.32255284 -64.9609375 49.83984375 C-68.79618901 39.30169854 -68.2621084 26.98622143 -64.26171875 16.61328125 C-62.32046146 12.59253474 -59.97602926 9.31307354 -57 6 C-56.21302734 5.07574219 -56.21302734 5.07574219 -55.41015625 4.1328125 C-41.24786958 -11.39571829 -16.62385082 -11.82338053 0 0 Z M-48.13671875 12.83984375 C-54.44734426 20.1559358 -57.0457769 27.91640701 -56.578125 37.53515625 C-55.15620762 46.05705297 -51.03511796 53.30035303 -44.18359375 58.59765625 C-36.15341793 63.75478169 -28.48497038 65.14192518 -19 64 C-10.44338205 61.87872146 -4.05427688 57.37681292 0.8125 50.0625 C5.15947372 42.49819377 6.27530178 34.72271494 4.3828125 26.23046875 C1.93368093 18.48211001 -2.26901705 12.04435801 -9.19140625 7.58984375 C-22.5335586 0.7344837 -37.27761534 2.59006879 -48.13671875 12.83984375 Z " fill="#D7D7D7" transform="translate(178,78)"/>
</svg>