<?xml version="1.0" encoding="UTF-8"?>
<svg version="1.1" xmlns="http://www.w3.org/2000/svg" width="512" height="512">
<path d="M0 0 C15.42851148 14.25994619 26.25154839 32.86810011 32.2421875 52.92578125 C32.43707764 53.57772461 32.63196777 54.22966797 32.83276367 54.90136719 C41.3744932 85.33386674 36.51492974 117.3603651 21.59814453 144.86743164 C18.08712788 151.08056233 13.9652079 156.73032096 9.4296875 162.23828125 C8.67042969 163.16253906 7.91117188 164.08679688 7.12890625 165.0390625 C-12.90038937 188.21535055 -42.22126754 201.80941701 -72.5703125 204.23828125 C-106.28317771 206.00738801 -136.3977068 194.98720954 -161.6328125 172.86328125 C-182.55117008 153.65320249 -197.10490821 126.38070638 -198.77514648 97.72387695 C-198.87346481 93.97602256 -198.89973143 90.23737223 -198.8828125 86.48828125 C-198.88032501 85.82742523 -198.87783752 85.16656921 -198.87527466 84.48568726 C-198.6894342 52.53319621 -186.4279025 24.48709895 -164.03222656 1.67724609 C-118.53653104 -43.10425514 -46.62012804 -41.6361105 0 0 Z M-145.1953125 29.86328125 C-162.5357179 50.02654334 -167.09629683 73.23161217 -165.5703125 99.23828125 C-164.90619924 104.46099907 -163.41721971 109.31521384 -161.5703125 114.23828125 C-161.20808594 115.27597656 -160.84585938 116.31367188 -160.47265625 117.3828125 C-152.26551008 139.05524256 -135.33081667 154.75495119 -114.71484375 164.4765625 C-94.85426152 173.29984732 -71.98315589 173.6797598 -51.67089844 166.23754883 C-44.42695312 163.40042935 -37.87265537 159.80464944 -31.5703125 155.23828125 C-30.66796875 154.59375 -29.765625 153.94921875 -28.8359375 153.28515625 C-11.33634438 139.93800896 -1.39834832 120.68478941 3.01171875 99.43359375 C6.09786072 75.84047105 0.11173935 53.48428884 -13.75 34.20703125 C-27.96179263 16.12776718 -47.51308736 5.4073957 -70.0703125 1.65625 C-98.70338534 -1.76310133 -125.37685832 9.15179447 -145.1953125 29.86328125 Z " fill="#A198C1" transform="translate(326.5703125,57.76171875)"/>
<path d="M0 0 C9.99456154 8.00924728 18.53421505 16.51714886 24.75 27.8125 C25.20890625 28.62203125 25.6678125 29.4315625 26.140625 30.265625 C37.03136674 50.60375717 38.64930796 74.8187621 32.1640625 96.79833984 C24.66106472 119.70679835 8.8651758 136.96928788 -12.25 148.125 C-21.69193504 152.6330857 -32.06765062 156.47473997 -42.6027832 155.25439453 C-52.92415843 154.3597757 -61.71120129 154.64797539 -69.94677734 161.53027344 C-76.3516069 167.18614651 -82.10185425 173.53577992 -87.80535889 179.88439941 C-91.07362864 183.49500578 -94.42785247 187.0256046 -97.77613544 190.56186104 C-100.3773559 193.31021451 -102.96156084 196.06889193 -105.50053406 198.87496948 C-105.97018585 199.38604248 -106.43983765 199.89711548 -106.92372131 200.42367554 C-108.1845165 201.79610549 -109.43517063 203.17783261 -110.6849823 204.56027222 C-115.28663902 208.600782 -119.99358132 210.1822466 -126.05834961 210.21655273 C-127.7005674 210.23557899 -127.7005674 210.23557899 -129.3759613 210.25498962 C-130.53966751 210.25205399 -131.70337372 210.24911835 -132.90234375 210.24609375 C-134.11644424 210.2513356 -135.33054474 210.25657745 -136.58143616 210.26197815 C-139.14241778 210.26838577 -141.70342888 210.26707775 -144.2644043 210.25854492 C-148.17094603 210.25003606 -152.07602443 210.27881554 -155.98242188 210.31054688 C-158.47656206 210.31215913 -160.97070483 210.31158089 -163.46484375 210.30859375 C-164.62652573 210.31982773 -165.7882077 210.33106171 -166.98509216 210.34263611 C-173.878655 210.28373784 -178.39402265 209.53073651 -184.25 205.8125 C-188.43598135 201.41185294 -189.36964778 198.11346373 -189.42700195 192.15112305 C-189.43983719 190.98949142 -189.45267242 189.8278598 -189.46589661 188.63102722 C-189.47328354 187.37478043 -189.48067047 186.11853363 -189.48828125 184.82421875 C-189.496353 183.53312698 -189.50442474 182.24203522 -189.51274109 180.91181946 C-189.52775386 178.1772983 -189.53759857 175.44280298 -189.54516602 172.70825195 C-189.55622291 169.21447547 -189.59061972 165.7213372 -189.63033772 162.22778606 C-189.66285029 158.88495631 -189.66728634 155.54219438 -189.67578125 152.19921875 C-189.69328934 150.94904465 -189.71079742 149.69887054 -189.72883606 148.41081238 C-189.72591049 147.23972427 -189.72298492 146.06863617 -189.7199707 144.86206055 C-189.72583694 143.83630417 -189.73170319 142.81054779 -189.73774719 141.75370789 C-188.74405904 135.76158024 -184.62193942 131.95119802 -180.29785156 127.98242188 C-179.30689414 127.06404297 -178.31628917 126.14528363 -177.32598877 125.22619629 C-176.80673073 124.74761673 -176.28747269 124.26903717 -175.75247955 123.7759552 C-172.38448925 120.65274994 -169.076312 117.46587693 -165.75505447 114.29315948 C-162.85067744 111.52552868 -159.92992982 108.78076385 -156.96533203 106.07763672 C-142.51713556 93.93765035 -142.51713556 93.93765035 -134.77807617 77.59375 C-134.59248443 72.98330971 -135.1228478 68.63713426 -135.95394897 64.11038208 C-137.86296984 49.29298754 -128.54367505 31.39684324 -120.25 19.8125 C-117.40381811 16.31478249 -114.38801204 13.04821571 -111.25 9.8125 C-110.71117187 9.20019531 -110.17234375 8.58789062 -109.6171875 7.95703125 C-82.5696413 -21.74090264 -31.43938671 -22.5676742 0 0 Z M-91.97753906 37.11572266 C-100.86393049 48.96538122 -104.14036058 62.1733155 -103.25 76.8125 C-102.92019101 78.47986766 -102.58682039 80.14653454 -102.25 81.8125 C-102.08758008 83.76686432 -101.9858761 85.72699499 -101.9375 87.6875 C-101.88142578 89.16863281 -101.88142578 89.16863281 -101.82421875 90.6796875 C-103.00729653 99.38453505 -109.77680144 104.43856917 -115.93271637 110.01770973 C-118.78192309 112.61827951 -121.57398306 115.27940118 -124.375 117.93164062 C-127.91868474 121.28444187 -131.47519044 124.61633687 -135.10742188 127.87329102 C-150.28644559 140.68739495 -150.28644559 140.68739495 -157.79492188 158.24755859 C-158.03578902 164.54046235 -157.47974934 170.64077314 -156.25 176.8125 C-147.4237159 178.71052889 -136.73031994 180.34567987 -128.45809937 175.83552551 C-119.17553562 169.58491321 -111.68600024 160.61667274 -104.2456665 152.36029053 C-100.75268366 148.51289224 -97.16971864 144.74946073 -93.59409714 140.97902489 C-90.81704496 138.0491751 -88.05743932 135.10836407 -85.34356689 132.11978149 C-84.842892 131.576064 -84.3422171 131.0323465 -83.82637024 130.47215271 C-82.48017346 129.00950701 -81.14401359 127.53764113 -79.80865479 126.06509399 C-76.38204042 123.04836388 -73.24248944 121.8215843 -68.6796875 121.80078125 C-67.83664062 121.90777344 -66.99359375 122.01476562 -66.125 122.125 C-65.17238281 122.23070312 -64.21976562 122.33640625 -63.23828125 122.4453125 C-61.25635508 122.6888433 -59.27458181 122.93362194 -57.29296875 123.1796875 C-41.76571198 124.84840972 -28.14498909 120.56343763 -15.78515625 111.03125 C-4.62407578 101.26315492 1.7687119 87.87342279 2.96484375 73.171875 C3.46392989 59.19746306 -1.48424363 45.96512975 -10.625 35.4375 C-20.74342242 24.89747664 -33.04600653 18.07044126 -47.85205078 17.47827148 C-64.97857568 17.1434401 -80.85868774 23.86816931 -91.97753906 37.11572266 Z " fill="#A198C1" transform="translate(450.25,276.1875)"/>
<path d="M0 0 C0.94633301 0.01933594 1.89266602 0.03867187 2.86767578 0.05859375 C23.11155927 0.56853414 23.11155927 0.56853414 28.828125 5.61328125 C32.62168342 9.75251438 33.83520477 12.77526438 34.25 18.375 C33.93198404 22.98623139 32.87486443 26.14513413 29.53515625 29.44921875 C25.65108623 32.76349854 23.45369817 34.13128894 18.42797852 34.08178711 C17.47323639 34.0753569 16.51849426 34.0689267 15.53482056 34.06230164 C14.49336884 34.05076553 13.45191711 34.03922943 12.37890625 34.02734375 C10.15421917 34.01277338 7.92952813 33.99879897 5.70483398 33.98535156 C4.53765839 33.97701294 3.37048279 33.96867432 2.16793823 33.96008301 C-26.97089667 33.75116499 -26.97089667 33.75116499 -56 36 C-57.0828125 36.12890625 -58.165625 36.2578125 -59.28125 36.390625 C-103.85688122 41.91146006 -159.70188177 54.49991797 -190 91 C-197.19302221 101.19111216 -200.35859806 110.77795996 -200.1953125 123.19140625 C-200.19106766 124.43747902 -200.19106766 124.43747902 -200.18673706 125.70872498 C-200.17566291 128.32680505 -200.1505836 130.94452571 -200.125 133.5625 C-200.11495365 135.35220855 -200.10583072 137.14192254 -200.09765625 138.93164062 C-200.07576565 143.28789604 -200.04132633 147.64388738 -200 152 C-199.13547179 152.00146656 -198.27094358 152.00293312 -197.38021755 152.00444412 C-176.33941235 152.04150394 -155.29876834 152.10050776 -134.25809383 152.18390274 C-124.08294855 152.22370349 -113.90788073 152.25609074 -103.73266602 152.27099609 C-94.86341821 152.28400722 -85.99434076 152.31095815 -77.12518889 152.35461307 C-72.42948276 152.37723996 -67.73398684 152.39290994 -63.03822136 152.39188385 C-58.61648508 152.39113797 -54.19521371 152.40905992 -49.77359772 152.44116783 C-48.15271437 152.44967167 -46.5317789 152.45141345 -44.91088295 152.44580269 C-42.69260662 152.43914814 -40.47580326 152.45711531 -38.25767517 152.48101807 C-37.01786361 152.48470524 -35.77805204 152.48839241 -34.50067043 152.49219131 C-29.0866292 153.27755435 -25.41085334 155.55297093 -21.5625 159.5 C-19.25419295 164.6706078 -19.24211103 169.42683665 -20 175 C-22.15170341 179.46279226 -24.90500786 182.2358803 -29 185 C-32.5684194 186.2306835 -36.04959848 186.12857806 -39.79838562 186.13371277 C-40.48149002 186.13597833 -41.16459443 186.13824388 -41.86839896 186.14057809 C-44.15666795 186.14690651 -46.44487753 186.14608946 -48.7331543 186.14526367 C-50.37429379 186.14825597 -52.01543257 186.15165866 -53.65657043 186.15544128 C-58.11547711 186.16428034 -62.57436459 186.16661942 -67.03327918 186.16725707 C-69.82073462 186.16796786 -72.60818519 186.17010278 -75.39563942 186.17275429 C-85.12533503 186.18200881 -94.85501693 186.18608922 -104.5847168 186.18530273 C-113.64483994 186.18470256 -122.70490343 186.19524228 -131.76501149 186.2110464 C-139.54945997 186.22413988 -147.33388901 186.22948584 -155.11834842 186.22884732 C-159.76484543 186.22859278 -164.41128948 186.23141958 -169.0577755 186.24202538 C-173.43180414 186.25173627 -177.80572952 186.25176508 -182.17976189 186.24450874 C-183.78048097 186.24346647 -185.38120658 186.24580445 -186.98191452 186.2518692 C-200.41221076 186.29943567 -212.60490591 185.51058325 -223.11328125 176.109375 C-231.5927384 166.88546872 -234.31388316 156.60094028 -234.30078125 144.3046875 C-234.30506638 143.39478058 -234.3093515 142.48487366 -234.31376648 141.5473938 C-234.31948151 139.62958605 -234.32003102 137.71175663 -234.31567383 135.79394531 C-234.31253143 132.9039067 -234.33594777 130.01491115 -234.36132812 127.125 C-234.45590014 99.80236525 -225.62014084 78.83573618 -206.5625 59.125 C-185.92179959 38.46766996 -157.35704678 25.89716333 -130 17 C-129.21850586 16.73977051 -128.43701172 16.47954102 -127.63183594 16.21142578 C-86.61369281 2.6391195 -42.96328034 -0.89383603 0 0 Z " fill="#A199C2" transform="translate(260,279)"/>
<path d="M0 0 C6.12015366 5.69968509 9.34983051 10.92154702 10.02734375 19.2734375 C9.96687342 25.30319303 8.09636741 30.2391675 4.9375 35.3125 C-0.68106882 40.45289275 -6.31984661 43.26916278 -14 43.625 C-21.04801314 43.28075257 -26.82837179 41.14530765 -31.8828125 36.1328125 C-36.5159342 30.38057928 -38.263403 24.95642421 -37.9375 17.5625 C-36.97804623 9.5119109 -33.01877408 4.14411773 -26.7421875 -0.8125 C-18.69302145 -6.29892709 -7.87152005 -5.24768004 0 0 Z " fill="#9E96BE" transform="translate(414,327)"/>
</svg>
